<?xml version="1.0" encoding="UTF-8"?><svg id="a" xmlns="http://www.w3.org/2000/svg" width="1329.85" height="493.7" viewBox="0 0 1329.85 493.7"><g><path d="M220,77.59c1.4,1.8-.5,2.7-.9,4.1,0,.9,.5,1.8,.9,2.3,0-.5-.5-1.4,0-2.3,2.3,.9,0,2.3,0,3.6,0,3.6,0,7.7,2.3,9.5-.5,0-.9,.9-2.3,0,1.4,.9,1.4,1.4,1.8,1.4-1.8,.9-.5,4.5,.5,4.5,0,1.8-.9,1.8-.9,2.3v.9c.5,1.4,.9-1.4,1.4,0-.9,.9-1.4,2.7-1.4,4.1,1.4,2.3-1.4,5.4,.5,8.6-.5,0-.5-.5-1.8,0,1.4,2.3,0,2.7-.5,5,0,.5,.5-.9,1.8,0,0,2.7-1.4,3.6,0,5.4-1.4,.5-2.3,2.3-1.4,2.7,0,1.4,0,0-.5,0,1.8,7.7-2.7,13.6-2.3,21.7-1.4,0-1.8,0-1.8-1.4-.9,2.7-.9,4.1,0,6.8-.9,1.8-1.8,4.1-1.8,6.8h-1.8c2.7,2.3-1.8,4.1,.9,7.2-1.4,.5-2.3,2.3-.9,3.2-2.7,3.6-2.7,11.3-6.3,14,0,.5,1.4,0,1.4,.5-2.3,11.3-8.6,19-9.1,29.4-2.7,2.7-3.2,6.3-4.5,10.9-.9,.5-.5,3.2-2.3,4.1h1.4c-.9,2.3-1.8,3.6-3.2,4.1-.5,1.4,0,2.7,0,3.2-1.8,0-1.8,2.3-1.8,2.7,0,.9-.5-.5-.5-.5-1.8,1.8-1.4,6.3-3.6,7.2,0,1.4,0,2.3,1.4,2.7-4.1,4.1-4.1,8.6-8.2,11.8,.5,3.2-1.8,4.1-1.8,6.8-4.1,.9-2.3,10-7.7,8.6q0,1.4-.5,1.8c.5,.5,1.8-.9,1.8,.5-.5,1.4-2.3,2.3-1.4,4.1-5.4,5.9-8.6,14.5-14,20.4v3.6c-6.3,2.3-5,11.3-12.7,13.1,0,.9,1.8,0,1.4,1.8-5,5.9-8.6,12.7-14,18.1h-1.4c-4.1,6.8-10,12.2-15,17.7-1.8,.9-2.3-1.4-2.7,.5,0,1.4,.9,0,1.4,.9-5,5-8.2,11.8-14.9,15-1.4,2.3-3.6,2.7-6.8,4.1-5.4,5.4-10,10.9-17.7,12.2-3.6,3.2-9.5,4.5-14,6.8-2.7-.5-5.4,1.4-6.3,1.4-14.5,4.1-28.5,1.4-38.5-4.1-2.3-1.8-2.3-5.4-5.4-5.4-2.3-4.5-4.5-8.6-6.3-13.6,1.4-3.2,1.8-6.3,4.1-6.8,0,1.4-.5,1.8-1.4,2.3,1.4,1.8,2.3,3.6,2.3,5.9,4.5,5.4,14,5.9,21.3,6.8-1.8,1.4-6.8,.5-10,.9,13.1,3.6,24,0,34.9-3.6,.5-1.4-.9,0-.9-1.4,.9-.5,1.4-1.4,2.7-1.4v1.4c3.2-.9,7.2-1.4,8.2-4.1h1.4c.9-2.7,4.5-3.6,6.3-5.4,1.4,.9,3.2,.5,3.2-.9,.9,0,.9,1.4,1.4,1.8,0-.9,1.4-1.8,2.3-1.8,0,1.4-.9,1.4-.9,2.3,0,.5-1.4,.9-1.4,1.8s0,0,0,0c9.5-4.5,16.3-12.2,23.6-18.6v-.9c.9,0,.9,.5,2.3,0,1.4-4.1,5-5.9,6.8-9.5,5.9-4.1,10-11.8,15-14.5,0-1.8,.9-1.8,.9-2.7,1.8,.5,2.3-1.4,2.7-3.2,1.4,1.4,3.2-1.4,4.5-2.3,.9,1.4,.5,.9,2.7,.5v3.6c1.8-.5,0-1.4,0-2.3,1.8-.5,1.4,.9,1.4,1.8,1.4,0,2.7-1.4,3.2-2.3-.5-.9-.5-2.7-.5-3.2v-.5c-1.4,0-1.4,.5,0,.5,0,.5,0,1.4-1.4,1.4-.5,.5-.5,0-.5-1.4-.5,1.8-2.3,.5-2.3,1.8-.5,.5,0-1.8-.5-1.8,0-.5,.5-2.7,.9-1.8,.9-2.3-1.8-.9-.9-3.2,.5,.9,2.7,2.7,3.2,2.3,1.4-1.8-.9,0-.9-1.4,.5-2.7,2.7-.9,3.6-.5,0,1.8-1.4-.5-1.4,1.8,.9,.9,.9-1.8,2.7-1.4,0,1.8-1.8,1.8-1.8,4.1,2.7-.5,4.1-2.7,4.1-5.4-.9,0-1.4,0-1.4,.9-.9-.5-.9-2.3-.9-3.2-1.4-.5-1.8,0-1.4,1.4-1.4-2.3,1.4-5.4,3.2-5.4,0-1.8-3.6-.5-2.3-2.7,.5,0,.5,.9,1.4,.9,2.3-2.7,4.5-5.4,5.9-9.1,1.4-1.8,2.7-3.6,3.2-5.9-1.8,0-.5,1.8-1.8,1.8v.9c-.9-.5-.5,1.8-1.4,.9,0-2.3,.9-2.3,0-4.5,1.4,2.3,1.4-2.7,2.7-3.2,.5-.5,0,.5,.9,.5,.5-.9,1.4-1.8,1.4-4.1,1.4-.9,1.4-3.2,2.3-5,.9,0,.5,.5,1.4,.5,.9-.5,.5-2.3,.5-3.6h1.8c0-.9-1.4-.9-.5-1.8,.5,0,.5-.9,.5-2.3,.5,0,.5-.5,1.4-.5,8.2-16.3,16.3-33.5,24.5-51.2-.9-2.3,.9-4.1,1.4-5.9,1.4,0,1.4-2.3,1.4-3.6-1.4,.9-1.4,2.3-1.4,3.6-2.7,4.1-4.5,9.5-5.9,13.6-.5,0-.9-.9-1.4-1.8,.9-2.3,1.8-4.1,2.7-6.3,.5,0,0,.5,0,.9v0c1.4-.5,1.4-.9,1.8-2.3,0-.5-.5,0-1.4,0,0-1.4,0-2.7,1.4-2.7v-1.4c5-10.9,8.2-24,12.7-35.3,.9-5.9,3.6-10.4,4.5-16.3,.5,0,1.4,0,1.8-.9,0-.5-2.7-.5-1.4-.5,1.4-2.3,1.4,2.7,2.7,1.8-.5,3.6-4.1,1.8-4.1,5,.5-1.4,2.7-1.4,2.7-1.4,.9,1.8,0,1.8-.5,2.7,.5,1.4,.5-.9,1.4,0,.5,0-.9,1.4,0,2.3-.9,0-.9-.9-1.4-.9-1.4,4.1-2.3,5.9-4.1,8.2,0,1.4,.5-.9,.5-1.4,1.4,.5,1.4,1.4,1.4,1.4,1.4-.9,.5-5.4,2.7-6.8-.5,5.4-2.7,8.2-2.7,13.6,0,0,0-1.4,.9-.5-.5-2.3,0-3.6,1.4-3.6,.5-1.4-1.8-.5-1.4-1.4,.5-.9,1.4-1.4,1.8-.9,0-1.8,0-2.3,1.4-3.2,.9-9.1,4.1-17.7,6.8-25.4v-3.6s1.4,0,1.4-.5-1.4,.5-1.4,0c0-1.8,1.8-.5,1.4-2.3,2.3-1.8-1.4-4.1,.5-5.4-1.8-.5-.5,1.4-1.8,1.4,0,0-.5,0-.9-.5,.9-1.4,0-4.5,.9-8.2,1.4-.5,1.4,0,1.4-1.8,1.4,0,.5,2.3,1.4,2.3,1.4-.9,0-3.6,2.3-3.6-.9-.5-.9,0-1.4,0,.5-1.4,1.8-2.3,2.3-4.1,0,0-.9,0-1.8-.5,1.4-3.6,2.3-4.5,1.8-8.2-1.8,2.3-1.8,5.9-1.8,8.6-1.4,.5-2.3,0-2.3,.5,.5-1.8,.5-4.5,.9-9.1-2.7,0-.9,1.8-2.7,3.6-.5-.5,0-4.5,1.4-5.9,0-6.8,0-13.1,.9-19.9,1.4,2.3,.5,6.8,0,10,1.8-4.1,1.8-13.6,1.4-19.9-1.4,2.3-.9,6.3-.9,9.5-1.4-4.1-1.4-12.2-.9-16.3-6.8-33.5-18.6-69.3-57.1-68.9-4.5,0-9.1,1.8-14.5,2.3-1.4,0-1.4-.5-1.8-.9-.5,.5-.5,.9-.5,.9-1.8,1.4-2.7-.5-3.6,1.4-.9-1.4-1.8,0-3.2,0s-2.7,.5-4.1,1.4c-25.8,9.1-46.7,24-66.6,39.9-1.4,2.3-5.4,3.6-9.5,6.3-5,4.5-8.2,10.9-13.6,14-2.7,5.9-8.6,7.7-9.5,14.5-1.4,0-1.8,1.4-2.3,2.3,0,1.8,.5,4.5-1.8,5.4-4.5-1.8-6.8-6.3-10-10,0-1.8,1.8-2.3,1.8-4.5,3.6-8.2,10.4-14,15-21.7C56.4,35.69,85.4,10.29,129.4,1.69h2.7c.5,0,.5-1.4,1.8-1.4,35.3-2.7,57.1,14,70.2,36.7,.9,1.4,1.4,0,1.4,0-.5,1.8,.5,1.8,0,4.1,.5,0,2.3,1.4,2.3,0,.5,1.4,1.8,2.3,1.8,3.6,0,0-1.4-.9-1.4,0,0,1.8,1.8,0,2.3,.9-.9,1.4,0,3.6-.5,5.4,0,0,2.3,.9,1.8-.5,.5,0,.5,.9,.5,2.3,.9,0,1.4-.9,.9-1.4,1.4,1.8,0,5.9,2.3,8.6,0,.9-.9,.9-.9,.9,1.8,5.9,3.2,12.7,5,19,.9-.9-1.4-2.3,.5-3.6-.1,.4-.6,2.2-.1,1.3ZM12,393.39c1.4,0,1.4,.9,1.8,0,0-1.4-1.8-1.4-1.8,0Zm1.4-5.9c.9-.5,2.3,.9,2.7,0,0-.5-2.7-.5-2.7,0Zm5.9,7.2c0-.9-.5-1.4-1.4-1.4,0,2.3-.5,0-1.8,0v1.4c1.4,.9,2.3,.9,3.2,0,0,1.4,1.8-.4,0,0Zm4.1,1.8c.5,.9,.9,.9,.9-.5,2.7,.5,5,1.4,7.7,.5,0-1.8,1.4-2.3,1.8-2.3,0,.5,1.4,.5,1.4,1.8h-1.4c0,.5-.5,.5,0,1.4,.5-.9,2.3,1.4,2.3,0s-.9,.9-.9-.9q.5-.5,1.4-.5s1.4,1.8,2.3,1.4c.5,0,1.4-.9,1.4-1.4,1.4,.5,0-1.8,1.4-1.8,.9,.5,0,2.3,.9,1.8,.5-1.8,0-1.8,0-4.1-3.2-1.4-8.6,3.6-13.1,1.4-.9,0-.9,1.4-.9,2.7-.5-.5-1.4-1.4-.5-1.8h-2.3c-1.4,.5-1.4,1.4-1.4,1.8-.6,.1-1,.1-1,.5Zm4.5-9.9c-.9,.5-.9,0-1.4,0,0-.5,1.4-.5,1.4,0Zm1.8,0c0,.5-1.4,.5-1.4-.5,.9,0,.9,.5,1.4,.5Zm2.3,8.1v1.4c-1.4,0-.9-.5-2.3,0-.5-1.8,1.4-.5,1.4-1.8q.4,.4,.9,.4Zm0-8.1c.5-1.4,2.3-.5,4.1-.9-.5,1.8-2.3,.9-4.1,.9Zm20.4-211.1c1.4,0,1.4-3.6,1.8-5.9,0-.5-1.4,1.4-1.4-.5,2.3,0,2.3-2.3,2.3-5.4-.9,.5,0,2.3-1.4,1.8,0-3.2,4.5-4.5,2.3-6.8,2.3-1.8,3.6-7.7,1.8-11.3,0-.5,.5-.5,.5-.9,.5-1.4-1.8,0-1.4-1.8,.9,0,1.4,1.4,2.7,0,.5-1.4-1.4-.9-1.4-1.8,2.7-1.8,1.8-6.3,2.7-8.2-1.4-.5-.5-4.1-.9-4.5,.9-.5,.5,1.4,.9,.9,1.4-1.4-.5-1.4-.9-1.8v-.5h.9s-.5-1.8,0-3.2c1.4,0,1.4-.5,1.4-.9-1.4,0,0,.5-1.4,.9-.9-.9,1.4-1.4,1.8-2.7,0-.9-.5-2.7-.5-3.6-1.4,3.2-2.3,5.9-2.3,9.5-1.4,7.7-4.5,13.1-4.5,19.9-2.7,2.7-.5,9.5-4.5,12.2,5-23.6,11.3-48.9,15.4-74.8-3.6,6.3-3.2,14.5-5.4,21.7,1.8-15.4,5.9-32.2,9.5-46.7,1.8-1.8,2.7-4.1,4.1-5.4,5.9-1.8,10,.9,15,3.2,1.8,4.1,0,8.6-2.3,10.9-.5,1.4,.5,1.8,.5,3.2-2.3,5-3.2,10.4-5.4,14.5-.9,9.5-5,15-5,24.5-4.1,5.4-1.8,15-5.4,18.6,.5,3.2,.5,4.5,0,6.8-1.8,10-5,21.7-6.8,30.8-1.4,5-.5,9.5-2.7,13.6,0,6.3-1.4,14.5-3.6,20.4-.9,13.6-2.7,30.8-5,44.4-.9,1.4,.5,1.4,.5,2.7-1.8,14.9-3.2,29.9-3.2,44.8,0,8.2,1.8,15,1.8,22.2-2.3-.5-1.8,1.4-2.3,1.8-4.5-.5-6.8-4.1-11.3-4.5-7.3-8.2-5.9-23.1-5.4-36.7,.5-15.9,1.8-31.7,4.1-45.3,0,5.4-1.4,13.6-1.8,19.5-.9,13.6-2.3,27.2-1.8,43,1.8-17.2,1.8-36.7,4.5-53.5-.9-1.8,.5-5,0-7.7,1.4-5,2.7-12.2,1.8-17.2,2.3-5.4,2.7-11.8,3.2-18.1,0-1.4,.9,0,.9-1.4,0-4.1,1.4-6.3,1.4-10.9,2.7-7.2,2.7-18.1,6.3-24.5-1.8,12.2-5,23.1-6.3,35.3-3.2,11.8-1.4,21.7-5.4,31.3,.9,11.8-.5,19.5-2.3,31.3,0,2.3,.9,2.3,.9,3.2h-.9c.5,2.3-.5,5,.9,7.7-.9,0-.9-.5-1.4-.5,2.3,1.8-1.4,2.3,0,4.5,0,1.8,.5-.5,1.4,0,0,2.3-.9,.5-1.4,1.8,0,.9,.5,1.4,.9,2.3,1.4-.5,.5-.5,1.8,.5,1.4-5.9,1.4-13.1,0-16.8,.9,0,.9,.5,1.4,.5,.9-10,1.8-17.7,1.8-27.2,2.7-17.7,6.3-38.5,9.1-56.2,0-.9,.9-1.4,1.4-2.7-1.4-.5-.5,1.4-1.4,.5-.2-.4-.2-.8-.6-.8Zm-13.6,120c1.4-1.8-.5-1.8-.5-4.1,.5,0,.5,.5,.9,.5,0-.5,1.4-1.4,.9-2.7-1.4,.5-2.3-.9-1.4-1.8,1.4,0,1.8,1.4,1.8,0-1.4,0,.9-3.2-.5-4.1,0,1.4-1.8,0-2.3,.9,1.1,3.2-1.7,8.6,1.1,11.3Zm-.9-65.2c0-3.2,.5-7.2,.9-10.4,1.8,2.2-.5,8.1-.9,10.4Zm2.2,49.3s.5,.9,.5,0c-.5-.5-2.3-1.4-2.7-2.3,0,.9,0,3.2,.5,4.1,.4-.4,.8-.8,1.7-1.8Zm-1.8,21.8v-.5c0-2.3,.9,.5,2.3,0-.5-2.3,0-5-1.4-5,0,2.3-.9,1.8-1.4,1.8,.5,1.9,.1,2.3,.5,3.7-.4,1.4,.9,0,0,0Zm3.6,84.3c-1.8-.5-3.2,.9-4.1,0,.5-1.8,2.7,0,4.1-1.8,.9-.1,0,1.3,0,1.8Zm-1.8-82h-1.8c.5,1.4,1.8,1.8,2.3,2.7,1.3-1.4-1.4-.9-.5-2.7Zm3.2-110.1c-.5,4.1-1.4,8.2-2.7,12.2,0,4.5,0,9.5-1.8,12.7,1.4-8.6,2.7-18.1,4.1-27.6h.5c-.1,.9-.1,1.3-.1,2.7Zm-4.1,73.4h0Zm1.4,126.8q-.5,.5-.5,.9c-1.4,0-1.4-.5-1.4-1.4,.5,.1,1.4,.5,1.9,.5Zm0-118.2v1.4c-1.4,.5-1.8-.5-1.4-1.4h1.4Zm-1.4,10.4h.9v-.5h-.9v.5Zm1.4-10.9c-1.4-.9-.5-.9-.5-1.4,.5,.1,.5,.5,.5,1.4Zm1.3-45.7c0-.5,.5-.9,.5-1.4,.9,0,.4,1.4-.5,1.4Zm4.6-58.5c0,6.3-1.8,13.1-3.2,19.9,.4-7.2,2.3-13.1,3.2-19.9Zm-3.2,223.4c.9,0,2.7,0,2.3,1.8,.9,0,.5-2.3,1.8-1.8-.9-.9,0-2.3,.9-2.3,.5,1.4,1.8,1.4,1.8,1.4v1.4c.9,.9,.9-.5,1.4-1.4h-.9c.5-1.8,2.3-1.8,2.3-3.6-4.5,1.4-6.8,.9-9.5,2.3,.3,1.3-.1,1.3-.1,2.2Zm3.2-94.3q-.5,0-.9-.5c.5-1.8,1.8-8.2,0-9.5,.5,8.2-1.4,18.1,2.7,23.6-.9-4.5-.9-8.6-1.8-13.6Zm-.9-85.1v-.9c.9-.9,.9,1.3,0,.9Zm0,68.4v5.4c1.8,0,.4-5,0-5.4Zm0,100.5c0-.5,1.8-.5,3.2-.5-.5,1-2.8,.5-3.2,.5Zm2.2-122.3c-.5,0-.5-.5-1.4,0-.5,5.4-.5,11.8-.5,16.8,.5,.9,.5-.5,1.8,0-1.4-12.7,.9-21.3,2.3-31.7,0-1.4-1.4-2.3-1.8-1.4q.5,0,.5,1.4c-2.2,2.2-.9,9.5-.9,14.9Zm-1.3-91.9c.9-1.8,1.4-4.1,1.8-5.9,.4,1.3,0,5.4-1.8,5.9Zm1.3,36.7c-1.4,.9-.5-.5-1.4-1.4q1.4,.9,1.4,1.4Zm.5,77c0-1.4-.5-1.8-.9-1.8,0-3.2-1.4-1.8,0,0,0,.4,0,1.8,.9,1.8Zm-.5-82.9s0-.5,.5-1.4c.4,0,.4,2.7-.5,1.4Zm.5,43.9c1.8-.5,.5,.9,1.8,.5-1.4-3.6,.9-4.5,0-7.7h-1.8c.5,1.8,.5,3.2,1.8,4.5-1.8,0-1.4,1.4-1.8,2.7Zm0,149.5q0,.9,.5,.9c-.1-.4-.1-.9-.5-.9Zm.4-109.6c0,.5-.5,1.8,0,1.8,0-.5,1.4-2.3,0-1.8Zm0-121c-.9-3.6,1.8-8.6,2.3-12.2,1.4,2.7-2.3,8.1-2.3,12.2Zm2.3,73.4c-2.3-2.3,1.4-4.1,0-7.2-.5,2.7-.9,3.6-2.3,7.2q1.4-.9,2.3,0Zm1.4-19.5c0,.9-.9,2.7,.5,2.3v-3.6c0-.9-.5,0-1.4-.9-.5-3.6,3.6-5,2.7-7.2,0,.5-.5,.9-1.4,.9-.5,0,.9-2.3-.5-2.3,0,6.3-4.1,13.6-1.4,18.6,2.8-2.8-.4-5.5,1.5-7.8Zm-1.9-31.2v1.8h-.5v-1.8h.5Zm0,82.4v-1.4h-.5v1.4h.5Zm0-86.5v-.5h.5c.4,0,.4,1.4-.5,.5Zm.5,43c0,1.4-.9,3.6,0,4.1,.4-1.4,0-2.3,0-4.1Zm.4,174c.9-2.7,4.1-2.3,5-4.1-3.6-.5-2.3,1.8-5.4,1.4,0,1.3-.5,2.7,.4,2.7Zm-.4-221.5c.5-.9,1.4-.9,1.8-.9-.4,.9-1.4,.9-1.8,.9Zm.4-27.7c-.5-5,2.3-10.4,2.7-15,1,4.6-1.3,10-2.7,15Zm2.8,34.5c0,4.1-1.8,8.2-1.4,12.2,0,1.4,.9,4.5-.5,2.7-1.8,2.7,0,4.1,0,6.8,3.2,0,0-5.9,2.7-7.7-.9-1.8-.5-2.3-.9-4.1h1.4c0-.5-.5-1.8,0-2.7h1.4c-2.3-1.4,1.4-5,0-7.3-.5,1.8-1.4,0-2.3,0,.9,0-.5-1.4,0,0q0,.1-.4,.1Zm-1.8,209.3h0Zm.4-221.6c-.5-.5,0-.5,0-1.4,1.4-.8,0,1.4,0,1.4Zm1.4,221.6c-.5-1.8,0-2.7,.9-1.8,0-1.8-.9-.9-.9-2.3,.9-.9,.9,0,2.3-.9,0,.9,.5,.9,.5,1.4,1.4,0,1.4-1.8,1.4-.5-.5-3.6,4.1-1.8,4.1-3.6-4.3,.9-12,2.2-8.3,7.7,0,.4,1.3-1.4,0,0Zm0-202.5c0,.5-.5,.5-.5,.5,0-.5,.5-.5,.5-.5Zm0-56.2c.9-1.8,.9-3.6,1.4-4.5-.1,1.3,.4,4-1.4,4.5Zm0,67.5c.5,0,.5,2.3,1.4,.9-.5,0-.5-2.3-1.4-.9Zm.4,178.9v.5h-.5v-.5h.5Zm1.8-176.2c0,1.4,1.8,0,0,0,0-.5,.5-.5,.5-1.4-1.4,.5-.9,.9-2.3,.5,0-.5-.5,0,0,0,0,.9,.9,1.8,1.8,.9Zm-.9-45.3v1.4h-.9v-1.4h.9Zm-.4,55.7c.9,0-.5-1.3,0,0-.5,.5,0,.5,0,0Zm2.7-32.1c-.9-1.4-.9-1.8-2.3-1.8,0,0-.9,0-.5,1.8,1,0,1.4,.4,2.8,0Zm-2.3-3.2c1.4-.9,.9,1.4,2.7,.5-1.8-1.8,.5-3.2-1.4-3.2,.9-1.4,0-1.4-.5-1.8,2.3,0,2.3-5,4.5-2.3v-3.6c-.9,.9-.9-.5-1.4-.5,.9-1.8-1.4-2.7,0-3.6,.9,0,.5,.5,1.4,0-.5-1.8,0-1.8,0-2.3-2.3,.5-.9-2.3-2.3-2.3-.9,3.2-.5,8.6-3.2,12.2,1.1,2.8-.2,4.6,.2,6.9Zm.5-53c.9,.5-.5,1.8,0,3.2h-.5c0-1.4,0-2.8,.5-3.2Zm-.5,262.7c.5,1.8,.5,2.3,1.4,3.6,0-1.8-.5-2.7-1.4-3.6Zm.5-262.7c.5-2.3,.9-2.7,.9-5,1.3,0,.9,5-.9,5Zm.9,21.7v.5h-.5v-.5h.5Zm0,44.9c0,.5,.9,.5,1.4,1.4-.1-1.4-.1-2.3-1.4-1.4Zm0,202c1.8-.9,4.1-.9,4.1-2.3-.9,0-1.4,.5-2.7,0-.1,1-1.4,1-1.4,2.3Zm.9-275c.5-4.1,.9-8.2,2.3-12.2,.9,3.6-1.4,9.5-2.3,12.2Zm.4,50.3c1.4-.5,2.3-1.4,2.3,.5-.4,.4-2.3,.4-2.3-.5Zm0,7.7c.5,.9,0,.9,0,1.4,1.4,1.3,1.4-1.4,0-1.4Zm1.4,2.7c0,.5,0,1.8-.9,2.3,1.8,.5,1.8-2.3,.9-2.3Zm1.4-21.7v-.9c-2.3,.5,0-1.8-.9-1.8,0,1.4-1.4,1.8-.5,2.7,.5,0,1.4,1.4,1.4,0Zm-.9,5.4s0-.9-.5-.9v-.4c.5,0,.5,.4,.5,1.3Zm0-10.8c.5,.9-.5,2.7,.9,1.8-.5-.5,0-1.4-.9-1.8Zm4.9-4.1c-.5,0-1.4-.5-1.4-.9q-.9,0-1.4-.5c0,.5-1.8,3.2-1.4,2.7,.2-2.2,3.8,0,4.2-1.3Zm-4,15.4c1.4,0,1.4,.5,1.4,0-.1,0-.1-.5-1.4,0Zm6.3,224.2c-1.4-.5-6.3,1.4-5,3.6,1.4-1.3,4.1-1.3,5-3.6Zm-4.5-247.8c.9,2.7-1.8,4.1,0,5.4-.5-1.3,3.1-4,0-5.4Zm0-26.7c-.5,.9-.5,2.3-.5,3.2,.9,0,.5-1.8,.5-3.2,.9-1.8,1.8-4.5,1.8-7.2,.5-.9,0-.9,0,0-.9,2.2-2.3,6.3-1.8,7.2Zm-.5,51.6c0,.9,0,1.4,.5,1.4,.4-.9-.5-.9-.5-1.4Zm4.1,218.9c-1.4,.9-1.4,0-3.6,0,.5,.9,.9,1.8,3.2,1.8-1-.9,.4-1.4,.4-1.8Zm-3.2-243.8c3.2-2.3,1.4-6.8,3.6-7.7-.5-.5-.9-1.8-1.8-1.4q0,.9,.9,.9c-2.7,1.4-1.3,5.5-2.7,8.2Zm1.8-13.6c0-.9,.9-1.8,0-1.8-.5,.5-.5,.9-.5,2.3,2.3-.5,.5,3.6,1.8,3.6,0-1.4-.5-1.8-.5-3.2h1.4c-.5-1.8,.5-2.3,0-3.6-.5,.9-.5,0-.5-.5,.5,0,.5-2.3,0-.9-.5,0,0,0,0,.9-.8,.5,.1,3.2-1.7,3.2Zm0-25.3c0,.9-.5,2.7,0,2.7,.9,0,.9-2.7,0-2.7Zm.9,39.4q-.9,0-.9,.9s.9-.5,.9-.9Zm.9-19.5h.5c0-.5-.5-.5-.5,0Zm3.7,256.4c-1.4-.5-2.7,.5-3.2,1.8,1.8,0,1.8-1.3,3.2-1.8Zm-1.4,1.8c-1.4,0-1.8,1.4-1.4,2.7,1.4,0,1.4-1.3,1.4-2.7Zm-1.3-260.9c.9,0,.9-1.8,.5-1.8q0,.5-.5,.5v1.3Zm2.7,267.7c-.5-.9-1.8,.5-2.3,1.4,.9,.4,2.3,0,2.3-1.4Zm-1.4-270.9c.9-.9-.5-.9-.5-2.3,.5,0,0,0,0,0,.1,1.4-.4,2.3,.5,2.3Zm1.4-4.1v-2.7q-.5,.5-1.4,.5c0,1.3,.9,1.8,1.4,2.2Zm0,11.4c0,.9,0,1.4,.5,1.4-.1-1-.5-1-.5-1.4Zm.4,254.1c.9,0,0,0,0,0-.4,.5,0,.5,0,0Zm2.3,2.7c0-1.4,1.4-2.3,0-2.3-.5,.9-2.7,.9-1.4,2.3,.9-1.3,.9,0,1.4,0Zm26.3-33.5c-.5,3.2-3.2,3.6-4.5,6.3,1.4,.5,1.8-3.2,4.1-2.7,0,3.2-2.7,1.8-2.3,5.4-1.8,.5-3.2,2.7-4.5,1.4,0-2.7,2.3-.5,2.3-3.2-2.7,.5-5,4.5-7.7,5.9,0,2.7-1.4,4.1-2.7,4.5,0-.5,.9-1.4,.9-2.3-4.5,.9-6.3,4.5-10.4,6.3v2.3c-1.4-.5-1.4,0-2.7,0,8.6-8.2,19-15,25.8-24.5,1.2,.2,1.2,.6,1.7,.6Zm-26.3,39.9c0-1.4,1.8-.9,1.4-2.3h-1.4c1.4,1.4-1.4,.5-1.4,1.8,.9-.4,.5,.9,1.4,.5Zm-.5-10.4c.5,0,0,0,0,0-.4,0,0,0,0,0Zm3.2-5.5c0-.5,1.4,0,1.4-1.4,.9,.1,0,1.9-1.4,1.4Zm1.4,9.5c1.4,1.4-1.4,1.4,0,2.7,.9-1.4,1.8-1.8,2.7-2.7-.5,0-.9,0-.9-1.4,.5,0,.9-.5,1.4-.9-.9,0-1.4,.5-1.4,.9-.5,.1-.5,1.4-1.8,1.4Zm1.8-342.5s.5,0,.5-1.4c-.1,1.4-.5,.1-.5,1.4Zm1.3,330.7c-.5,.5-.9,0-1.4,0q.5-.5,.5-1.8c.5,1.4,1.4,1.4,.9,1.8Zm2.8-1.8c-.9-.5-.9,1.4-2.7,0,.5-.5,1.8-1.4,2.3-2.7,1.3,.5,.4,1.4,.4,2.7Zm-2.3,10.9c0,.5-.9,1.4,0,1.4,0,0,1.4-.9,0-1.4Zm1.8,5.4h0Zm2.3-9.5c-.9,0-1.8,.5-1.8,1.4,1.3,0,2.2,0,1.8-1.4Zm.4-340.6s0-.5,0,0c-.4,.9,0,.9,0,0Zm3.6,337.5q0,.5-.9,.5v.5c-.9-.5-.9,1.4-.5,1.4,0-.5,.5-.5,.5-1.4,1.4,0,1.4-.5,1.4-.9,0,.5,0,0,0,0q0-.9,0,0l-.5-.1Zm2.8-11.8c0,.5-1.4,0-.9,1.4-1.4,.5-1.4-.9-1.4,0v-1.4h2.3Zm-.5-328.9c1.4-.9,3.2-1.4,3.6-2.7,.5,0,0-.5,0,0-1.3,.9-2.7,1.3-3.6,2.7Zm1.4,337c-.5,1.4,0,1.4,.5,1.8,.4,0-.1-.4-.5-1.8ZM101.3,24.59c-2.3,.5-4.1,1.8-5.9,2.7,2.3-.4,4.5-.9,5.9-2.7,.5,.5,.5,0,.5,0,1.4-.5,3.6-.9,2.7-2.3,0,.5-.5,0-.9,0,0,1.4-1.8,.5-1.8,2.3h-.5Zm-2.3,326.2c.9-1.8,4.1-4.1,5.9-6.3-1.4-1.4-2.3,2.3-4.5,2.7,3.6-6.8,9.5-10.9,13.6-17.2h1.4c4.1-7.2,10.9-13.6,15.9-20.8,0,3.6-3.6,7.2-6.8,9.5-.9,3.6-2.7,5.9-5,8.2v1.4c-.5-.9-1.4,0-2.3,0-3.2,4.5-5.9,8.6-10,12.2,0,.5-1.4,1.8,0,2.3-2.7,3-4.6,7.5-8.2,8Zm2.7,9.9c1.4,.5,1.4-1.4,.9-1.4h-.9v1.4Zm2.3-343.8c1.4,0,3.2,0,3.2-1.4,1.8,0,0-1.4,0,0-1.4,.9-2.7,.9-3.2,1.4Zm1.8,338c0,.5-.9,1.8,0,1.8,0,0,1.4-1.4,0-1.8Zm1.4-12.3q0-.9,1.4-.9c-.1,.9-1.4,.5-1.4,.9Zm1.3-.9v-1.4h.5q0,.5-.5,1.4Zm.9-1.3h0Zm1.8-326.2c-1.4,0-1.8,0-1.8,.5,.5-.1,1.8-.1,1.8-.5Zm-1.3,325.2s0,.9-.5,.9q0-.9,.5-.9Zm4.1-6.3c0,2.3-2.3,5-4.1,6.3,0-2.7,3.6-4,4.1-6.3ZM111.7,14.19c4.1-1.4,7.7-2.7,11.8-4.1,.5,0,2.3-.9,2.7-1.8-1.4,.5-2.7,0-2.7,1.8-4.1,0-8.6,1.8-11.8,4.1Zm5.4,0c-.9,0-2.3,0-2.3,.5,1-.1,2.3-.1,2.3-.5Zm.9,315.7v.5h-.9v-.5h.9Zm2.8-1.3c-1.4-.5,0-1.4,.9-1.8,0,1.3-.9,1.3-.9,1.8Zm5.4-3.6v-1.8c1.8-.5,1.8,1.8,0,1.8Zm2.7-1h0Zm.9,0c0-1.4,.5-1.4,1.4-1.4,0,.5-.9,1.4-1.4,1.4Zm1.8,5.9h-1.4c.9,.9,0,2.3-.5,2.3,1.9,.5,1.9-1.4,1.9-2.3Zm-1.3-3.1c0,1.4-.5,1.8,.9,2.7,0-1.4,.4-2.7-.9-2.7Zm1.3-4.6c.5-.9,0-.9,0,0-.4,0,.5,.9,0,0Zm1.4,3.2h0Zm.4-17.7c-1.4-1.4-.5-1.4,0-2.3,1,.1,.5,1,0,2.3Zm0-300.8v-.5h-.5v.5h.5Zm.5,303.6c0,.5-.5,.5-.5,.5,0-.5,.5-.1,.5-.5Zm.5-4.6c-.5,0-.5-.5-.5-1.8,.5-.4,.5,1.4,.5,1.8Zm0,8.6c-.5,0,0-1.4,0-1.4,1.3,.1,0,1,0,1.4Zm0,1.4c1.4,0,1.4-.9,1.8-.9q-.5,.9-1.8,.9Zm1.8-1.4c-1.8,0-.5-1.8,0-1.4,0,.5-.5,.5,0,1.4Zm.9-2.2c-1.4,0-.5-1.8-.9-3.2,1.8,.9,.9,1.8,.9,3.2Zm0-10.9c-.9,0,0-1.4,0-1.4,1.3,0,0,.9,0,1.4Zm1.3,4.1c0,.5-.5,0-.5,0,.1-.5,.5-.5,.5,0Zm3.2,.4q-1.8,.5-2.3,1.8c-1.4-1.4,1.4-1.8,.9-4.1h.9c1.4,.1,0,.5,.5,2.3Zm-1.8,10c.9-.9,0-5.4,0-1.4,0,0-1.4,1.4,0,1.4Zm.9-19.5c-.9,.5-.9-.5-.9-.9,.4,0,.9,.5,.9,.9Zm1.8,17.2l-.5,.5c-1.4,0,0,1.8,0,0q.5,0,.5-.5c.9,.5,.9,0,.9,0,.5-1.4,2.3-2.7,3.2-4.5-1.4,0-1.4,1.4-2.3,1.4,0-1.8-.5-1.8-.9-2.7,0,2.3-1.4,.9-1.8,.5,.5,1.8,.5,2.3,0,4.1,.9,0,.5-1.8,1.8-1.8,.5,.5,0,2.3,0,3.2l-.9-.2Zm1.4-12.7c-1.4,.9,0,.9,0,1.8-1.4,0-1.4-.5-1.8-.5,0,0,1.4-1.4,0-1.4,0-.8,.4,.6,1.8,.1Zm1.3-.9c-.9,0-.9,.5-.9,.9-.5-.5-.9-.9-.5-2.7,.5,.5,0-1.4,1.4-.5-1.3,.5,0,1,0,2.3Zm-1.3-10.4c.5-.5,0-1.4,1.4-.9-.1,0-.1,.9-1.4,.9Zm.4,18.1c.9,0,1.4-1.4,1.4-1.4,.9,1.4,.9-1.4,.5-1.4,0,.9-.5,.9-.5,1.4-.5-.4-1.8-.4-1.4,1.4Zm.9-4c.5,.5,.9-1.4,0-1.4v1.4Zm1.4-19.5c1.4,1.4,0,2.3-.5,3.2,0-1.4,.5-1.9,.5-3.2Zm1.3-277.7q-1.4,0-1.4,.5,1.4-.1,1.4-.5Zm-1.3,293.5c1.4,.9,2.3,1.4,3.6,1.8,0-1.4,.5-1.8,.5-3.2-.5-.5-1.8,0-1.8-.5v-.5h.5c0-1.4,1.4-2.3,0-2.3,0,.5-.5,.5-.5,2.3-1,.6-1,1.1-2.3,2.4Zm2.2,3.7c-.5,1.4-2.3,2.3-.9,4.1,0-1.4,2.3-2.8,.9-4.1Zm-.4-12.3h0ZM156.1,6.49c-2.3-.5-5.9-.5-7.7,.5,2.3-.5,5.9,.4,7.7-.5Zm-5.9,284.9s-1.4,1.8,0,1.8c-.9-1.3,.5-1.8,0-1.8Zm.5-10.8c-1.4-1.4,0-2.3,.9-3.2,.9,.9-.9,1.8-.9,3.2Zm0,21.2c0,.9-.5,.9,0,1.8,.9,.5,.9-1.8,0-1.8Zm.9-1.3v-1.8h-.9v1.8h.9Zm0-19c-.9-.9,.9-2.3,.9-3.2,.9,.9-.5,2.3-.9,3.2Zm.9,7.2h-.9c0,.5,0,.9,.5,1.4-.1-.9,.8-.5,.4-1.4Zm1.3-2.7c-1.3,0,0,1.8,0,0,.9-1.8,2.3-4.1,2.7-6.3,1.4-.5,3.6-1.4,1.8-2.3,0,1.8-1.8,1.8-1.8,2.3-.9,2.2-2.2,4-2.7,6.3Zm-.4,10c-.5,1.8,.5,2.3,1.4,1.8-.1-1.4-1-.9-1.4-1.8Zm.9-22.7c-.9,0,0-1.4,0-1.8h.5c-.1,.4-.1,.9-.5,1.8Zm1.3-3.6c.5,0,.5,2.3-.9,1.8-.4-.5,.9-.5,.9-1.8Zm1,20.4c-.5,1.4,.9,1.4,0,2.7,1.8,.5,1.4-1.4,1.4-2.3,.9,.9,.9-2.3,0-1.8v1.8c-.5,0-.5-.4-1.4-.4Zm1.3-6.4s-1.4,1.8,0,1.8c0-.9,.5-1.4,.5-1.8,.5-.5,1.8-1.8,.5-2.7-.5,.5-.9,.9-.5,2.7h-.5Zm.5-276.8c.5,0,.5,.9,1.8,.5,.4-.9-1.8-.9-1.8-.5Zm2.7,261.9c0,.9-.9,2.3,0,2.7v.9c-.9,.9-2.3,1.4-.9,3.2,.5,0,.5-1.8,.9-3.2,.5,0,0-.5,0-.9,.5,0,1.8-.5,1.8-1.8,1.8-.5-.5-4.1,1.4-4.5,0,.5,0,1.8,.5,1.8,.5-1.8,1.4-2.3,1.4-3.2-.9,0-.5-.9-1.4-.9-.5,1.8-1.8,2.7-1.8,4.5,.9,.9,0,1.4,0,2.3-1.9,1.3-.6-.9-1.9-.9Zm-.9-5.9c-1.4-.9,.5-2.7,.9-3.2,.4,.5-.5,2.3-.9,3.2Zm.9,14c0,.5-.5,.9,0,1.4,0-.5,1.3-.9,0-1.4Zm.4-.4c2.3-.9,2.3-3.2,3.6-4.5,.5,0,1.4,1.4,1.4-.5-.9,0-.9-.5-2.3-.5,.5,.5,0,.9-1.4,.5,1.5,2.3-1.7,2.3-1.3,5Zm2.8-.5c-.5,.5-1.4,1.8,0,1.8,0-.4,.4-1.8,0-1.8Zm.9-22.2q-.5,0-.5,.9c-.5,0,0-.9-.5-1.4,1-.4,1,.1,1,.5Zm1.8,3.2c-.5,1.8-1.4,3.2-1.8,5,1.4-.5,.9-1.8,2.7-.5,.5-1.8,1.8-2.3,1.8-4.1-1.4,0-.9,1.8-1.8,1.8,0-.5,.5-.5,.5-1.8,0-.5,0-2.3,1.4-2.7,.5,.5,0,1.4,.5,1.8,2.3-1.8,2.7-8.6,5-9.1v-.9h-.5c0-1.4,.5-1.4,.5-1.4,0-2.3,3.6-2.7,2.7-4.5-.5,1.8,0,.9-1.4,.5,0,.5,0,1.4-.5,1.4-1.4,0,.9-1.8-.9-1.8-1.4,.5,0,.9,0,1.8-4.5,2.7-4.1,10-8.2,12.7,0,1.4,1.4,1.4,1.4,2.3-.5-.1-.5-.5-1.4-.5Zm-1.4,16.8h.5c-.5,0-.5-.5-.5-.5,0,.5-.5,.5-.5,.5h.5Zm0-21.8c0-1.4,.5-2.3,.9-2.7,.5,0,0,2.7-.9,2.7Zm1.4,23.6q-.9,0-1.4,.5,.9-.1,1.4-.5Zm.9-4.6c.5,1.4-1.4,.9-1.4,2.7,1.8,.1,3.6-2.2,1.4-2.7Zm-.9-22.2c.9-1.4,.9-2.3,1.4-3.6-.1,1.8-.1,3.6-1.4,3.6Zm.9,17.3c-.9,0,0,.9,0,0,.5,0,.5-.5,.5-.9,1.4-.9,2.3-2.3,2.7-4.1-.9,0-1.4,.5-2.7,0v.9s.5-.5,.5,0c0,1.4-.5,1.8-.5,3.2-.5,0-.5,.4-.5,.9Zm.4-20.9c.5,0,0-.5,.5-.5q0,.5-.5,.5Zm.5-.4s0-.5,.9-.5c0,0,0,.5-.9,.5Zm3.6,4.9c-1.4,1.8-1.4,4.1-2.7,5,.4-1.3,1.3-5,2.7-5Zm-1.8-7.2c-.9,0,.5-.9,0-1.8,.4,0,0,1.8,0,1.8Zm.4,20.4c0,.9-.5,.9-.5,1.4,.5,.4,.5-1.4,.5-1.4Zm2.8-27.2c.9,0,.9-.5,.9-.5,.5,0,0,1.4,0,1.8-1.4-1.8-1.4,0-1.8,0-1.8,0,0-1.8,.5-2.7,.4,.5,.4,1,.4,1.4Zm-.9,13.1c.9,0,.9-2.3,1.8-2.3-1.8,.1-2.3,1.4-1.8,2.3Zm1.8,2.3c0,1.4-1.8,2.7-.9,3.6,0-1.3,2.2-3.1,.9-3.6Zm.4-19.5v-1.4h.9c0,.5,0,1.4-.9,1.4Zm2.7,15c-.9,0,.5-1.8-.5-1.8-.5,1.8-1.4,2.3-1.4,4.1-.9,0-.9,.9-.9,1.8,1.4,0,1.4-1.4,.9-1.8,1-1,1-2.3,1.9-2.3q0,.5,.5,.5c0,.9-.9,2.3,.5,2.3-.5-1.8,.5-.5,1.8-.5,0-2.3,1.4-3.6,1.4-5-1.8,.5-2.7,2.7-3.6,3.2q-.1-.5-.6-.5Zm.5-6.4c.5-.5,.5-.9,.5-1.4-.9-1.8-.9,.5-2.7,0-.9,1.4,.9,1.4,1.4,1.8,0-.5,0-1.4,.9-1.4q-.1,.6-.1,1c-.5,0,0,.5,0,0Zm4.5-13.1c-.9,0-1.8,.5-2.3,.5v4.5s-.5-.5-1.8-.5c-.5,1.4-1.8,2.7-1.8,5.4,.9-.5,2.3,0,2.3-1.8,0-.9-.9-.5-.9-.9,.5,0,.5-1.4,1.8-1.4,0,0,0,1.4,.5,1.4,0-1.4,.5-2.3,.5-4.1,.9,1.4,.9,0,1.8,0,0-2.3,.5-2.3,.5-5,0-.5,1.4-.5,1.4-.5-1.4-.5-1.4,0-1.4,.5-.6,.1-.6,1.4-.6,1.9Zm-4.1,14c-.5,.5-.5,1.4-.9,2.7,.9,.1,2.3-2.2,.9-2.7Zm6.8-20.3c-.5-.5-3.2,0-2.3,0,.1,0,2.3,1.3,2.3,0Zm-2.2,25.8c-.5,0,1.3,1.3,0,0h1.4c.5-1.4,0-1.4,0,0h-1.4Zm1.3-28.6c0,.5-1.4,.5,0,1.4,0-.9,.5-1.4,0-1.4Zm1.4-10.4c-.9,.9-.9,3.2-1.4,5,.9-.5,1.4-4.1,1.4-5Zm0,22.7c3.6-2.7,5-7.7,6.3-12.2h-1.8c-.9,4-3.1,6.7-4.5,12.2Zm2.3-14.1c.9-1.4,0-2.3,0-3.6,2.7-1.4,1.8-5.4,2.3-6.8h1.8c0-1.4-2.3,0-2.7,0,.5,4.1-4.1,9.1-2.3,9.5,0,.5,0,.9,.9,.9Zm-.9-1.3v0Zm1.3,4.9c-1.4,0-1.4,.5-1.4,.9,1.4,1.4,1.4,.1,1.4-.9Zm1.8-19.9c-.5-.9-.9-1.4-1.4-1.8,0,.9-.5,1.8,0,2.3,.5-.5,1-.5,1.4-.5,0,.5,.5,0,0,0Zm1.8-10.4c-.9,1.4-2.7,5.4-1.8,6.3,.5-1.8,2.3-5.4,1.8-6.3Zm-1.3,14.9c.5,0,1.4,0,1.4-.5-1,.1-1.4,.1-1.4,.5Zm1.3,12.3c1.8,0,2.3-1.8,.9-3.6,.9-.9,3.6-4.5,1.8-5-.5,1.8-2.3,1.8-1.8,4.5-1.8,0-2.2,2.7-.9,4.1Zm.5-24.9c0,1.8-1.4,4.5-.5,5.9,.5-1.4,1.9-5.5,.5-5.9Zm-.5,7.2c0,.9-.9,1.4,.5,1.4,0,0,.4-1.4-.5-1.4Zm.9-13.6c0,.5-.9,2.7-.5,3.2,.1-.9,1.9-2.7,.5-3.2Zm3.7,3.2h-1.8c.5,4.1-2.3,6.8-1.8,10,1.3-2.8,2.2-6.4,3.6-10Zm0,17.2c-1.4,0-2.7,0-2.3,1.8,.9,0,2.3-.4,2.3-1.8Zm-1.8-21.7v1.8c.4,.4,.4-1.8,0-1.8Zm1.8,19.4c0,.5-1.4,.9,0,1.4,0-.5,.4-.9,0-1.4Zm.9-4.5c0,.9,0,1.4-.5,1.4-.5-2.7,3.6-4.5,2.3-6.3-1.4,2.3-4.1,6.3-2.3,9.1-.4-2.4,3.2-2.8,.5-4.2Zm0-27.6c0,.5-.5,1.8,0,1.8,0-1.4,1.8-1.8,0-1.8Zm9-36.7c-1.8,8.6-3.2,12.7-4.5,20.8-1.8,1.8-1.8,4.1-1.4,6.8-1.4,.9-1.4-.5-1.8,0,1.8-8.6,4.5-18.6,6.3-29.4,1.4,0,1,1.8,1.4,1.8Zm-5.9,57.1c-.5,0-.5-.9-1.4-.9,0,.9-.5,1.8,0,2.7,.1,0,1.4-.9,1.4-1.8,.5-.5,0-.5,0,0Zm0-20.9v.5c-.5,0-.5-.9-.5-1.8,.5,0,.5,.9,.5,1.3Zm1,13.2c0,2.3-2.3,2.7-.9,4.5,1.3,0,2.2-3.2,.9-4.5Zm-.5-15.9c-1.8-.9,.9-1.8-.5-2.7v-1.4c.5,0,0,1.4,.9,1.4,1,.4,.1,1.8-.4,2.7Zm1.4-9.1c0,.5,.5,0,.5,0,1.8-.5,.5,4.5-.9,4.5,.5-1.8-1.4,0-1.4-1.8,.9,0,1.4,0,1.4-.5s.5-1.8-.5-1.8c.5-.5,.5-1.4,.9-2.7,.9,0,0,1.8,.5,2.3h-.5Zm-.5,24.1c0,.9,.9,.9,1.4,.9,.9-1.4-.9-.5-1.4-.9Zm1.4-4.6c0,.9-1.4,1.4,0,1.8,0-.4,1.3-1.3,0-1.8Zm1.3-29.4c.5,.9,1.8,.5,1.8,1.8-1.8,.5-2.3,0-1.8,2.3,1.8-1.4,0,1.4,0,1.8v-1.4c-1.4,0-.5,1.4-1.4,1.8-.9-1.8,1.4-4.5,1.4-6.8,.5-1.3,1.4,.9,0,.5Zm0,7.7c-.5,0,0-.9-1.4-.9,1-.9,1.4,.9,1.4,.9Zm.5,19c0-.5-.5,0-.5-1.8,.5,0,0,0,0,0-.4,1.4,0,1.8,.5,1.8Zm-.5-29c1.4-.9,0-2.3,1.4-3.6,1.4,1.4-1.4,3.2,.5,3.2,.4,.9-.5,0-1.9,.4Zm4.1-24c-1.4,2.7-1.8,6.8-2.3,10-1.8-2.3,.5-7.7,.9-10.4,0-.1,0,.4,1.4,.4Zm.5,39.4c-1.8,.9-2.3,2.7-2.7,4.5,2.2-.4,.8-3.1,2.7-4.5Zm-1.9-23.1q0-.5,1.4-.5c.5,.5-1.4,1.8,.5,1.8h.9c0-1.4-.9-1.8,.9-1.4-1.4-1.8,.5-4.1-1.4-4.1,0,1.4-.9,2.3-.9,1.4-1.4,.5-1.8,2.4-1.4,2.8Zm2.3-10.4c0,.5,.5,.9,1.4,1.4-1.8,1.4-1.8,0-3.6,1.4,0-.9,1.4-1.4,1.4-2.7-.1-.1,.4-.1,.8-.1Zm-.9,17.2v.9c-1.4,0,0,0,0-.9Zm.5,13.1c-1.8,1.8,2.3-.5,0-.5v.5Zm.9-41.2c0-.9,.9-3.6-.9-4.5,.5,1.8-.5,3.2-.5,4.5h1.4Zm0-5v-.5h-.9v.5h.9Zm-.9,54.8s.5,0,.5-.5c-.1,.1-.5,.1-.5,.5Zm.9-59.8c-.5,1.4-.9,2.7,0,4.1,0-1.3,1.3-4.1,0-4.1Zm1.3-51.1q0,.5,.9,.5c0-1-.9-1-.9-.5-1.3,.4,0,2.2,0,0Zm0-7.3v1.4h-.5v-1.4h.5Zm5.5,16.8c0,1.4-.5,0-1.4,0,1.4-.9,0-.9-.5-2.3,1.9,0,1.4,1.8,1.9,2.3Zm-1.4,87.4c0,.5-.5,.5-.5,.5,0-.5,.5,0,.5-.5Zm1.4-32.2c0,.9-1.8,1.4,0,1.4,0,0,.4-.9,0-1.4Zm1.8-51.6s-.5,.5-.5,1.4c-1.4,0-1.4-1.8-1.4-3.2,.5,.4,.5,1.8,1.9,1.8Zm-1.4,46.2c0,.5,0,1.4,.9,.9,0-.4,0-.9-.9-.9Zm.9-2.7c.5-.5,0-.5,0,0-.9,0,0,.9,0,0Z" fill="#67131e"/><path d="M231.7,226.59c-.5-1.8-2.7-2.3-5-3.6-5.4-5-4.5-19.5-1.4-27.6,5.4-15,15.4-29,23.6-38.5,4.1-.9,5.9-4.1,9.1-5.4,6.3-1.4,12.2-2.7,18.6-1.4,6.8,3.6,13.6,6.8,17.7,13.6,0,.5,.5,.5,0,2.3,1.4,.9,2.3,3.2,2.7,4.5,.9,1.4,.9,4.1,1.8,5.4,.9,10-1.8,16.3-4.5,24.5-1.4,3.6-1.4,8.2-4.1,10.4,0,1.8-1.4,2.3-.5,4.5-3.2,1.8-3.2,6.8-5,9.5-4.5,7.7-9.5,14.5-14.9,20.4-2.3,1.8-4.1,4.1-6.3,5.9-3.6,1.8-8.2,4.1-13.1,3.6-2.3,0-4.1-1.8-6.3-1.4-2.3-2.3-4.5-4.1-6.8-5.9-2.7-5.9-3.2-12.7-1.8-20.8-1-1.8-2.4,.5-3.8,0Zm48.5-60.7c-2.3-2.7-4.5-6.3-6.8-9.1h-.9c-19.5,8.2-29,26.7-38.5,45.8-.5,.9,0,2.3,0,3.2-2.7,4.1-.9,9.5-.9,14.5,.9,0,1.4,1.8,2.7,.5,5-12.7,10.9-26.7,23.1-31.3,1.4,.5,5,1.4,6.3,2.7-5,4.1-13.6,7.7-14.5,15.4,0-.5,.9-.5,.9,0,1.4,4.5-2.7,5-3.6,9.1,0,1.8,1.8,1.8,1.8,3.6-5.9,4.5-5.9,14.5-4.1,22.2,9.5-1.8,12.7-10,18.6-15,9.1-15.4,24.1-37.6,15.9-61.6Zm-13.1-9q-1.4,0-1.4,1.4c1.4-.1,1.4-1,1.4-1.4Zm2.7,76.1c.9-3.6,6.3-6.8,5.4-10.4-1.8,4.1-6.8,5-8.2,10.4,1,0,1-.5,2.8,0Zm14.9-46.7c-2.3,1.8-2.3,5.9-2.7,9.5,1.4-2.3,2.7-7.7,3.6-9.5,.5-.5,0-.5,0,0h-.9Zm7.3,14.1c.5,0-1.4,1.4,0,1.8,.4-.5,.9-1.8,0-1.8Z" fill="#67131e"/><path d="M340.9,210.29c0,.5,.5,0,.5-.5,.5,2.3-1.4,4.5-1.8,6.3-3.6,.5-1.4,4.5-3.6,6.8,0,1.8,1.4,1.8,1.8,1.8-4.5,8.2-5.9,17.7-11.8,24-.5,.9,.9,.5,.5,.9-1.4,1.4-2.7,1.8-5.4,1.4-1.8-2.3-4.1-1.8-6.3-4.5-.9-1.4-.9,.5-1.8,0-4.1-4.1-5.4-10-4.1-17.2,.5-13.6,2.7-30.8,4.5-41.2,0-4.1,.5-7.7,.9-12.2,2.7-2.3,5-6.3,9.5-6.3,2.3,0,3.6,2.3,5.9,2.3,.9,1.4,1.4,1.8,1.4,3.6,0,.9-1.4,.5-1.8,1.8,0,14.5-1.4,26.3-4.5,39,15.4-26.3,29-55.3,55.3-71.1,5,.9,10.4-3.2,14.5,0,.9,0,.9-.5,1.4-.5,6.3,2.3,10.9,5.4,15.4,9.1,0,1.4,.9,2.3,.9,3.6-6.8-.5-10-4.1-15-5.9-2.7,0-4.1,1.8-6.3,1.4-4.1,2.7-8.2,6.8-12.7,9.1-.5,4.5-5.4,5.9-7.7,10-.5,0-.5-.5-.5-.5-1.4,4.5-4.5,7.2-6.8,9.1-.9,3.6-4.1,8.2-6.8,11.8-.9-.5-.5,.5-2.3,1.4,2.3-5.9,8.6-13.1,11.8-19.9h1.8c0-.5-1.8-1.8,.5-1.8-.9-1.4-2.7,1.4-3.6,1.4s.9-1.8,.9-2.7c.5,1.4,1.8-1.4,2.3-2.3,.9,.9-1.4,1.4,.5,2.7,2.7-1.8,4.5-4.1,5.9-7.7-1.4,.5-1.8,1.8-3.6,2.3,.5-3.6,5-5.9,6.3-8.6-6.3,4.1-9.5,10.4-14.5,16.3,2.3,0,.5,3.2-.5,5-1.8-.9,.5-2.3,.9-4.1-3.6,1.8-6.8,7.2-8.6,11.3-.5,0-.5,.5-.9,.5-2.7,7.7-6.8,10.4-9.1,18.1,0,.5,1.8-.5,1.4,.9,0,.9-1.4,.9-1.4,.9v2.3c-.5-.5-.5-2.3,0-3.2-2.3,1.4-2.3,3.6-2.7,5-.7-.3-.7,.1-.7,.1Zm-27.2,20.4c0,1.8-.9,5,0,5.9,.9-1.8,.9-4.5,0-5.9Zm25.4-7.7c-1.4-2.3,1.8-3.6,2.3-6.8,1.8,1.8-1.9,4.6-2.3,6.8Zm17.2-53.4c-5,10-13.1,18.6-16.8,28.5,8.6-12.7,16.8-26.3,26.7-38.5,.9,0,.9-.5,.9-.9,.9,0,1.4,0,1.4-1.8-.5,0-1.4,.5-1.4,1.8-4,3.2-6.7,7.7-10.8,10.9Zm-3.2,25.8c.5,2.3-1.4,3.6-2.7,5-.5,5.4-2.7,8.2-6.3,10.4,0,1.8,0,4.5-2.3,5.4-.5-1.4,1.4-3.2,2.3-3.6,0-2.7,0-4.1,2.3-5,1.8-4.5,3.6-9.5,6.8-13.6h.9c-.1,1.4-.5,1.4-1,1.4Zm-6.8,7.2c-.5-.9,1.4-1.8,.5-3.6,.9,0,.9,.9,1.4,.9-1.4,.5,0,2.7-1.9,2.7Zm2.8-4.9c.9,0,.5,2.7-.9,2.3-.5-1.9,.9-1.9,.9-2.3Zm.9-1.4c-.5,0,0-.9,0-2.3,.5,0,.9-.5,1.4-.5-.1,1.4-1.4,1.4-1.4,2.8Zm.4-12.2c0,1.4,0,2.3,.9,2.3,0-1,.5-2.3-.9-2.3Zm.9,8.1c0-1.4,1.8-1.4,1.8-2.7,.5,.9,.5,2.7-1.8,2.7Zm9.1-10.9c-2.7,2.3-4.1,6.3-6.8,8.2,0-4.1,2.7-4.1,4.1-5.9,0-2.3,.9-3.6,2.3-5,.4,0-.1,1.8,.4,2.7Zm-5.5-1.8c.5,0,.5,.5,.9,0,.1-.4-.9-.4-.9,0Zm3.7-5.4c1.4,.5,1.8-.9,.5-.9,0,0,0,.5-.5,0v.9Zm7.7-10.4c-.5,0-.5,2.3-1.8,2.7v.5c-.5,0,0,.5,0,0v-.5c1.4,0,1.8-1.4,2.7-2.7,1.4,0,2.7-2.3,.5-2.7h-.5v2.7h-.9Zm4.1,2.2c0,.9-1.8,1.4-1.8,2.3-.9-.5,1.4-1.4,0-2.3,1.3-.4,1.3,0,1.8,0Zm0-11.3c0,.9-1.8,.5-.5,2.3,.5,0,1.4-1.8,.5-2.3Zm2.2-1.3c-.5,0-1.8,.9-.5,1.4,.1-.5,1.4-.1,.5-1.4Zm5.5-1.9c-1.8,1.8-5.4,2.7-4.5,5.4,.8-2.2,3.1-3.1,4.5-5.4Zm-3.2,10c0,.5-.9,1.8,0,2.3,1.4-1.4,1.8-2.7,3.2-4.1,.5-.5,0-.9-.5-1.4,0,1.4-.9,2.8-2.7,3.2-.9-1.8-1.4,.9,0,0Zm3.2-4.5c0-.9,0-1.8-1.4-1.4v.5c.9,0,.9,.9,1.4,.9Zm0,.4c.5,.9,2.3,0,2.3-.5,.5-.9,0-.9,0,0-1,.1-1.9,.1-2.3,.5Zm6.3-4.5c-1.4,.9-2.3,1.8-3.6,2.7,1.3,0,3.6-.4,3.6-2.7Z" fill="#67131e"/><path d="M412.5,216.19h-1.8c-.5,1.8,1.4,1.8,1.4,3.2-.5,.5-1.4,.9-1.4,1.4,.5,1.8,.9,0,1.4,0-.5,1.4-1.4,1.8-1.8,2.7,0,0,.9,0,.5,1.4h-1.4c.9,3.6,0,4.5,0,8.2,0,1.4,.9,1.4,1.4,1.4-1.4,.9-.5,3.2-3.2,4.1,1.8,1.4,.5,2.7,2.7,2.7-.9,1.8-1.4,5.4-3.2,6.3,1.8,1.8-1.8,4.1,.9,4.5,0,.9-.9,.5-.9,.9,.9,.9,1.8,3.6,.9,4.5-1.4,0-1.4-2.7-1.4-4.1-1.4,1.4,0,1.8,0,4.1-1.4,0-1.8,0-1.8,1.4-1.8,0-.5-1.4-1.8-1.4-.5-.5-.5,0-.9,1.4-5-4.1-5-13.6-5.4-19.9-.9-18.1,3.2-37.1,4.5-53.5-.9-2.3,.9-3.6,1.4-5.9,1.4-1.4,2.7-2.3,4.1-3.6,3.6,0,5-.5,8.2,0,0,.5,0,1.4,1.4,1.4,.5,3.2,2.7,6.3,1.4,10.4-.9,1.8-2.3,4.5-.9,7.2-1.8,4.1-1.8,10-4.5,15,0,1.4,1.4,.5,1.4,2.3-2.6,.3-1.2,2.1-1.2,3.9Zm-10.4,38.5c-1.8-8.2-.9-14.5-1.8-24.5,1.8-10,3.6-20.4,2.7-29.9-1.8,5.4-2.7,15.4-3.2,23.1-1.4,9.6-2.7,23.2,2.3,31.3Zm.4-16.3c.5,0,1.4,.5,1.4,0-1.4-5.9,2.7-15-.9-19-.9,8.2-.9,19.5-.9,27.6,2.7-1.8,.9-6.3,.4-8.6Zm2.7-20.4c0-1.4-.9-.9-.9-2.3,.5,0,.9,0,.9-.5-.5-2.7,1.8-5,0-7.2,0,2.3-2.7,6.8-1.4,10,.5-.9,1,.5,1.4,0Zm1.4,30.8c-1.8-.9-1.8,.9-1.4,.9,0-.4,1.4-.4,1.4-.9Zm.4-13.5c-.5,0-.5-.9-1.8-.5,1.4,.9,0,1.8,0,2.3,1.4,0,1.8,0,1.8-1.8Zm-1.8,5.8v3.2c1.4-.4,1.4-1.8,0-3.2Zm1.4,6.4c0-.9,0-2.3-1.4-2.3v1.8l1.4,.5Zm0,4.5c0-.5,0-.9-1.4-.9v.5c1.4,0,1.4,.4,1.4,.4Zm0-48.9c-1.4,.9-1.4,3.2,0,4.5,0-1.3,.9-4.1,0-4.5Zm0,29c0,.9-1.4,2.3,.5,2.3-.1-1.4,.4-2.8-.5-2.3Zm2.3-1.8v-.9h-1.4v.9h1.4Zm0,20.8c0-1.4-1.4-1.8,0-2.3,.4,0,1.3,2.8,0,2.3Zm1.8-22.6v.5c-.5,0-.5-.5-.5-.9,.5-.6,.5-.1,.5,.4Zm16.3-98.8c0,4.1-2.7,5.4-4.5,8.2-3.2,1.8-5-1.4-7.2-.9,0-1.8-1.8-1.4-2.3-3.2-.5-9.1,11.3-11.8,14-4.1Z" fill="#67131e"/><path d="M500.8,205.79c-1.4,0-2.7,1.4-2.7,2.7-.5,0-1.4,1.4-1.4,1.4,.9,0,1.4,0,1.4-1.4,1.4-.4,2.3-1.3,2.7-2.7v-.9h1.4c-1.4,3.2-3.6,5-5.4,5.9-.5,0-.5-.5-.9-.5-2.3,.5-5.4,2.3-7.3,4.5,1.8-1.8,5.9-.9,5.9-3.6,.5,.9,0,1.8,0,2.7-4.5,1.8-8.6,4.5-12.7,6.8,4.1-.9,8.2-2.7,12.2-5-4.1,4.5-11.8,6.3-16.3,9.1,3.6,0,5.9-2.3,9.5-2.7-.9,.5-.9,.9-1.4,2.3,1.8,0,1.8-2.3,4.1-2.3-1.8,2.7-5.9,6.8-8.6,5.9,0,.9-3.2,.9-3.6,2.3-1.4-.9,.9-1.4,0-1.4-1.4,0-1.4,1.8-2.3,1.4,0,0,0,.5,.5,.5-4.1,2.3-10.4,2.3-14.5,2.3-4.1,2.7-8.2-2.3-10.9,0-5.4-2.7-9.5-5.4-13.1-10q-.5,0-.5,.5c-1.8-5.4-7.7-7.2-8.2-15,0-6.3,1.4-10.9,2.7-16.8,0-.9,.9,.5,1.4,0,0-1.8-1.4,0-1.4-.9,3.6-12.2,10-21.7,17.2-31.3h.5c1.8-3.6,6.8-8.2,9.5-10,4.1-7.7,19.9-12.2,27.2-4.5,2.3,2.3,2.7,5,4.1,8.2,0,.5,.5,.5,1.4,.9,0,1.4-1.4,3.2,0,5-3.2,5.9-7.7,11.3-11.3,16.8q-.9,.5,0,2.3c-1.8,0-1.8-.9-2.3,0-1.8,2.3-5.9,4.5-6.3,8.2-.9-.5-.5-.9-.9-.5-.9,.5-.9,1.8-.9,2.3-6.3,4.5-11.8,9.5-21.7,10.9-.9-.5-2.3-.9-2.7-1.4-5.4,5.9-7.7,21.7,.5,25.8,5.4,.9,9.1-.5,12.7,0,1.8-.9,3.6-.9,4.5-2.7,19-3.6,31.7-14.5,42.1-26.7,1.8,4.1-1.4,8.2-4.1,10.9v.7h-.1Zm-66.6-17.7c.5-.5,.9-.5,.9-2.7,0,0,.5-1.4,0-1.4v1.4c-.4,.5-1.8,2.3-.9,2.7Zm1.4-4.5q1.4-.5,1.4-2.3c1.4,0,0-1.4,0,0-.1,.5-1.9,1.9-1.4,2.3Zm5.4-9.1c0,.9-1.4,.9-1.4,1.4,1.4,.5,1.9-1.4,1.4-1.4Zm-1.3,3.2c0,.5,0-1.8,0-1.4v1.4Zm5.8-10c-.9-.5-.5,.5-.9,1.4,.5,0,.9-.9,.9-1.4,.9,0,1.4-.9,.9-1.4,1.4-.9,2.7-1.4,2.7-2.7-1.8,0-2.3,1.4-2.7,2.7-.9-.4-.9,.5-.9,1.4Zm7.7-9c-1.4,.9-2.7,2.3-4.1,3.6,1.9,0,4.1-2.7,4.1-3.6Zm5,19.5c1.4-3.6,5-4.1,5.9-7.7,4.1-1.4,5.9-6.8,9.5-9.1,1.4-2.7,2.7-5.4,4.5-7.7,0-1.8,.5-2.7,0-4.1l-.5-.5c-11.3,9.5-19.5,22.2-26.3,34.4,1.8-2.3,4.5-2.3,5.4-5.4,.6,.5,1.1,.5,1.5,.1Zm-4.1-21.3c.5,0,0,0,0,0-.4,.4,0,.4,0,0Zm15,73.8c.5-1.4-.9-1.4-1.4-.5-.9,1.4,.5,.1,1.4,.5Zm0-1.8v-.5h-.9v.5h.9Zm.9,.5c0,1.4,1.4,.9,1.8,1.4,0-.5,.5-1.4,0-1.8-.5,0-.5,.5-.9,1.4-.4-.1-.9-1-.9-1Zm2.3,.9c1.4,0,1.4-1.4,.9-1.4l-.9,.5v.9Zm3.1-5.5c-.5,1.8-2.3,0-2.3,1.8,.5,.5,3.2-.4,2.3-1.8Zm-1.3,4.1h-.5v1.4c0-.9,1.4,0,.5-1.4Zm1.8-3.6q.5,0,.5-.5c-.1,0-.5,0-.5,.5Zm4.1,0q.5,0,.5-.5c-.1,0-.5,0-.5,.5Zm2.2-.5h0Zm3.2,0h0Zm4.5-4.5c0,1.8-1.8,1.8-2.7,1.8,.5-1.3,1.4-1.3,2.7-1.8Zm-1.3-5.4c0,.5-1.4,.5-.9,.5,.4,.4,2.2-.1,.9-.5Zm3.6,4.5c.5,.5-.9,.5-.9,1.4-1.4-.5-.5-1.4,.9-1.4Zm-1.4,2.7v-1.4h.5c.9-.4,.9,1.4-.5,1.4Zm4.1-6.8c-.9,0,0-.9,.9-.5,0,.5-.9,.5-.9,.5Zm.5-4.1c-.5-.4,0,0,0,0,2.2-1.3,0,1.9,0,0Zm4.1,2.8c-.9,.9-1.4,1.4-3.2,1.8,.5-.9,.5-1.4,1.4-2.7,.4,.9,.4,1.3,1.8,.9Z" fill="#67131e"/><path d="M991.4,164.99h1.8c-1.4,.5-2.3,1.4-4.5,1.4,.5-.5,.9-.5,.9-.9-.9,0-1.4,0-1.4,.9-.9,0-1.4-.5-1.4-.9q.5,0,.5-.5c.9,0,0,0,0,0l-.5,.5c-.5,0-1.4,.9-2.3,1.4,0,.9,1.8,0,2.3-.5,.5,.9-1.8,1.8-2.7,2.7v-1.4c-1.4-.5-.9,1.4-2.7,.5,1.4-1.4-1.4,.9-1.8-.9-.5,.5-2.3,.9-2.3,1.8h-.5c0,.5,.5,0,.5,0h1.4c0,.5-1.4,1.4,.9,1.4-3.2,3.6-8.2,5.9-12.7,9.1,.5-.9-.5-.9-.5-1.8-1.4,0-1.4,.9-1.4,1.4,0,.9,1.4,.5,1.8,.5-.5,.9-1.8,2.3-3.2,3.2v-1.4c.5,0,0,0,0,0-1.4,1.4-4.1,1.8-3.2,4.1-1.4,.5-2.3,2.3-3.6,2.7,0-1.8,2.3-1.8,2.3-4.1-.9,0-1.4,1.4-2.3,1.4,0,0,0,.5-.5,.5v.5h-1.4c0,.5,1.4,.5,1.4,0v-.5q.5,0,.5-.5c1.4,1.4-2.3,2.7-2.7,2.7,0,2.3,.9,0,.9,.5-2.3,3.6-5,5.4-7.2,9.1-.5-1.4-1.8,.5-1.8-1.4-1.8,1.4-1.4,5.9-4.1,5.9q.5,0,.5-.5,.5,0,.5-.9c-.5,0-.5,.9-.5,.9-.5,0-.5,.5-.5,.5v1.8c-1.4-1.4-1.8,.9-2.7,0,0,1.8-1.4,3.2-2.7,3.6,.9,5,6.3,8.2,5.4,12.7,.5,.5,1.4,1.8,1.4,2.7,2.7,1.8,5,4.5,4.5,9.1,2.3,.5,2.3,5,4.1,5.4-.5,0-1.4,0-1.4,.9,4.5,1.8,1.8,8.6,5.9,10.9,0,2.3,.5,4.5,2.3,5.4,0,1.8,.5,1.4,0,2.7h.5c1.8,9.5,7.2,23.6,5.9,35.3,0,.9,1.4-1.4,1.4,0-1.4,1.4,0,3.2-1.4,3.6,2.3,4.1-.5,10,1.8,14-2.3,2.7,.5,7.7-2.3,10,0,.9,.5,.5,.5,1.8-.5,5.9,0,14-4.1,19.9,0,.5,1.4,0,1.4,.5-.5,5.9-1.8,11.3-4.1,16.3-1.8,8.6-5.4,16.3-10.9,22.2,0,0,.9,0,.5,.9-3.2,7.2-9.5,10-12.2,17.2-9.5,7.2-16.8,16.3-30.4,18.6-1.4,.5-1.8,.5-2.7,.9-21.7,3.6-38.5-7.2-47.6-22.2-3.2-20.8,0-43.9,4.1-61.6,2.3-4.1,3.2-9.1,5-14.5,13.1-43,33.1-79.7,58-111.9-9.1-15.9-21.3-29-34.9-42.1-14.5-10.9-26.7-24-35.3-41.2-1.4-.9-2.7-.9-4.1-2.3,0-.5-.9-2.3,0-2.7,0-.9-.9,0-1.4-.9-2.3-8.6-1.8-21.3-.9-30.4,10.9-28.1,29.9-47.6,52.1-65.2,.9,0,1.4-.9,2.3-.9,1.4,0,.9-1.4,1.4-1.8,.5,.5,1.4,.5,2.3,0,16.8-8.6,37.1-16.3,57.1-18.1,16.3-.5,31.7,5.4,39.9,15.4,0,2.7,1.4,4.1,2.7,5.4,3.6,8.2,5.9,18.1,6.8,28.1-5.4,9.5,4.1,22.2-4.5,28.1-8.6-6.3-6.3-20.8-9.5-32.6-2.7-8.6-6.3-17.7-11.3-23.1-5.4-5-13.6-7.2-22.2-10-8.2,0-14.5,0-23.1,.9-5.4,3.2-10.9,5-15.4,9.1-.5,.5-.5,.9-.9,2.3-7.2,4.1-12.7,10.4-21.3,13.6-5,4.1-11.3,10.9-16.3,15.9-10.9,11.8-24.5,29.4-26.7,48.9-1.8,15.4,5.9,25.4,11.3,34.9,4.1,3.2,7.2,6.8,9.5,10.4,2.7,.9,4.1,3.2,5.9,3.2,0,.9,.9,1.4,1.8,1.4,.5,.9,0,1.4,0,1.4,1.8,.9,4.5,1.4,4.5,5,5,.9,6.3,5,10,6.8,1.4,1.4,0,.5,0,1.4,3.6,2.3,7.3,4.1,7.7,8.2,.9,0,1.4,.9,1.4-.9,.5,1.4,1.4,2.3,.9,2.7,.5,.9,1.8-.5,1.8,.5,0,.5,1.4,.5,.5,1.8,1.8,0,3.6,2.3,4.1,4.1,2.3,1.4,4.1,2.7,4.5,5.4,1.8,1.4,4.5,4.1,4.5,6.8,.9-1.4,1.4,0,2.7,2.3,17.2-18.6,36.7-36.7,66.1-43,7.2,.5,15.4-1.8,22.2,2.3,.9,1.8,2.7,4.5,1.8,7.7-5.9-5.4-15.4-5.9-23.1-5.4-.5,2.3-3.2,2.3-5.4,2.7q-.2-.6-.2,.3c-.5,0,.4,.5,0,0Zm-139.1-34.9c-1.8-.9-2.3-3.2-3.2-5.9,1.9,1.4,2.8,4.1,3.2,5.9Zm-1.8-35.3c1.4,.9,1.8-.9,.5-.9,0,0,0,.5-.5,.5v.4Zm.5,13.1v1.4c1.3,.9,1.3-1.4,0-1.4Zm0,2.8c.9,1.4-.5,3.6,1.4,2.7-.1-.9-.5-1.4-1.4-2.7Zm1.3-20c0,.9-1.4,1.4,0,1.4v-1.4Zm.5,28.1c0-.5,0-.9-.5-.9v1.4q0-.5,.5-.5Zm1.3-6.8c.5,.9-.5,.9-.5,2.3,1.4,.4,1-2.3,.5-2.3Zm.9,4.6c-.5,.9-.9,3.6,0,3.6-.4-1.4,1.4-2.7,0-3.6Zm5.9,13.1c.5-.5,0-2.3-1.8-1.4v-1.4s-.5,.5-1.4,0c.9,1.4-.5,1.4,0,2.3,1.4,.5,.9-1.8,1.4-.9,.9,.5,.9,1.4,1.8,1.4Zm-1.8-4.5v-.5h-1.4v.5h1.4Zm0-49.4c1.4,.5,1.4-.5,1.4-1.8,.5,0,0,0,0,0-1.4,0-1.4,1.3-1.4,1.8Zm.9,265c.5,1.4-.9,2.3,0,2.3,0-.5,.9-1.4,0-2.3Zm.9-209.7v-.5h-.9v.5h.9Zm0,3.1h0Zm1.4-1.8c.5-1.4-.9-1.4-.9,0h.9Zm2.7,4.1c0-1.4-.5-1.8-.9-2.3-.9,.5-.9,.9-.9,.9,1.3,0,1.3,1.4,1.8,1.4Zm-.5,2.3s.5,0,.5-.9q-.5,0-.5,.9Zm.5-1.9c0,.9,1.4,.9,1.8,1.8,0-1.3-.4-1.8-1.8-1.8Zm1.8,3.7v-1.4h-1.8v1.4h1.8Zm-.4,177.1c-1.4,0,.4,.9,0,0,.5-.5,.5-1.4,.5-1.8,.5,0,0,0,0,0-.5,0-.5,1.3-.5,1.8Zm.9,55.3c0-1.4,1.4-3.2-.5-3.6v.9c0,1.3-1.8,2.7,.5,2.7Zm55.2-148.6c0,3.6-.9,4.5-3.6,5.9,0-1.8,3.2-1.8,2.3-3.6-1.4,.9-2.7,1.8-3.2,2.7,.9,0,.5,2.3,1.8,2.3-1.4,.9-1.8,2.7-3.6,3.2,1.4,2.3,0,5-2.3,4.1,.9,1.4,.9,2.3-.5,2.3,.5-1.4,0-.5-.5-1.4,.5,0,.9-.9,.5-1.4-.5,.5-.5,.9-.5,1.4-.9,.9,.5,2.7-1.4,2.7q0-.9,.5-1.4c-1.4,0-3.2,3.2-1.4,4.1q.5-.5,.5-.9c.5,0,.9-1.4,.9,0-.5,.9-.9,2.3-1.8,2.7v-.5c.5,0,0-1.4,0,0-1.4,0-.5,.9-1.4,.9-.9-.9,.9-2.3,0-2.3-.9,1.4-.9,3.6-2.7,2.7,0,2.7,1.8,.9,2.7-.5,.5,2.3-2.3,1.8-2.7,3.6,0-.5,0-1.4-.5-1.4s-1.8,2.3-.5,2.7c0-.5,.9-.9,.9-.5-.9,2.7-3.2,4.5-5,4.1,0,1.4,0,2.7,.5,2.7,0,0,.9-2.3,1.8-1.4,0,1.4-2.3,4.1-2.7,2.3-.9,1.4-1.4,1.8-2.3,2.3-.5-.5-.9,1.8,0,0,.9,3.2-3.2,6.3-2.7,9.1,0,0,0-1.4,.9-1.4,0,1.8-2.3,4.1-3.6,2.3-1.4,1.8,.5,1.4,0,1.8,0,1.4-1.4,.5-1.4,1.8-.5,.5,0,.5,0,0,1.8,.9-.9,2.7-2.3,3.6,0,.5,1.8,.5,1.4,1.8-3.2,5-4.5,12.2-7.7,17.2-1.8,8.2-6.3,15.4-7.7,24.5-.9,.5-.9,5.4-2.3,4.1,1.4-6.8,5.4-13.6,5.4-20.4-3.6,9.5-5.9,19.9-9.1,31.3,2.7-2.7,1.8-7.7,4.1-9.5-.9,6.3-2.3,12.2-4.1,19,0,4.1,.5,9.5-.9,12.2-1.4-7.7,.9-13.6,1.4-21.3-2.7,7.2-3.6,18.6-3.2,28.1,.5-2.7-.5-3.2,.5-4.5,1.4,.9,1.4,1.8,1.4,3.2,0,0-2.7,0-1.4,1.4,0-1.4,1.8,0,1.4,.9-1.4,8.6,0,20.8,3.6,28.5-.9,.5,0,2.7-.9,4.1,2.7,3.2,5.9,4.5,6.8,9.1,5.4,2.7,8.6,6.3,15,3.2,.5,.9,2.3,.9,2.7,.9,0-1.4,1.4-3.2,2.3-2.7,.5,.9-.5,1.4-.5,1.8,3.6-.9,9.1-1.8,9.1-5-1.4-.5-1.4,1.4-2.7,1.4h-.9c3.6-4.1,10.4-6.8,13.1-11.8,11.3-8.6,19-20.4,24.5-34,1.4,.5,2.7-1.8,1.8-3.2,.9-2.7,1.8-5.4,3.6-8.2,.5-1.4-1.4-.5-1.4-1.4,.9-.9,1.4-1.4,1.8-1.4,2.3-13.6,5-25.4,5.4-39.4-1.4-9.1,.5-17.7-1.8-28.1-2.7-22.2-12.2-44.4-21.7-61.2v-.5c0,.5-.9,0-1.4,0v1.4c-1.1,1.6-2.5,4.3-4.3,3.9Zm-53.9,86.1c-1.4,.5-1.8,2.7-1.4,3.2,.1-1,1.4-2.8,1.4-3.2Zm0-170.8q0-.5-1.4-.5v.5h1.4Zm0,197l-1.4-.5v.9s.1-.4,1.4-.4Zm0-11.3c.5,0,0-.9,.5-1.4-.5-.9-.5,1-.5,1.4-1.3,.5,0,.5,0,0Zm1.4-178.9h1.4c0-.5-.5-.5-1.4-.5,0-2.3,1.4-.9,2.7-1.4v1.4h-.5c-.9,.9-.9,1.4,.5,1.4,.5,0,0-.5,0-1.4,0,.5,.5,.5,.9,.5,0-1.4-.5-1.4-.9-1.8-1.8-.9-1.8-3.2-4.1-4.1,0,1.4,.9,1.4,.9,2.7-.5,0-.5-.9-.9-.5,0,.9,0,2.3,1.4,3.2v.5h0Zm-1.4,245.5c0,1.4,0,2.3,.9,1.8,0-.4-.4-.4-.9-1.8Zm.5-84.3c.5,.5-.5,1.4,0,1.4,0-.5,1.8-1.4,0-1.4Zm.4,18.6c0,.5-.9,1.8,0,2.3,0-.5,1.4-1.8,0-2.3Zm1.8-274.1c-1.4,0-1.4,.9-1.8,1.4,1.4,0,1.4-.5,1.8-1.4Zm1.9,261c-.5,4.1-3.2,7.2-2.3,10-.9,.9-1.8,2.3-.9,2.3,.9-.5,.9-.9,.9-2.3,1.4-2.3,2.3-5.9,2.7-10,1.4-3.2,3.2-7.2,3.6-11.8-1.8,2.7-2.7,7.2-3.6,11.8h-.4Zm-1.9-4.1c-.5,.9-1.4,1.4,0,1.4-.4,0,.9-.5,0-1.4Zm4.1-261.9c-1.4,1.4-4.1,3.6-4.1,4.5,1.9-.8,3.7-2.2,4.1-4.5Zm-2.7,257.8c0,.5-1.4,.9,0,.9,0,0,.5-.4,0-.9Zm.5,32.2c-.5,0,0-.9-.5-2.3,1.4,0,.9,2.3,.5,2.3Zm1.3-190.3c-.5,0-.9,0-.9,.5,.5,0,.5,1.4,.9,0v-.5Zm2.3,3.2c.5-.9,0-.9,0-.9-.5,0,0-1.8-1.4-.5v.5h1.4v.9Zm.4,1.3c1.4,0,.9,1.4,1.8,.5,.5-.5-.9-.9-1.8-.5Zm1.8,144.6c0,.9-1.8,2.3-.5,3.6,.1-1.4,2.4-2.7,.5-3.6Zm0,9.9c1.8-3.2,3.2-5.9,4.1-10.4,.5,0,0,0,0,0-1.8,2.7-3.6,6.3-4.1,10.4Zm1.9-151.7c.5,1.8,2.3,2.7,3.6,4.1-.9-2.3-1.4-3.7-3.6-4.1,0-.9-1.4-.5-1.4-.9,1.4-1.8-1.4,.5,0,0,0,.4,0,.9,1.4,.9Zm-1.4,139.9s1.4,0,0,0c1.4-.5,1.8-2.3,1.8-4.1,1.8,0,0-1.4,0,0,0,1.9-1.8,2.8-1.8,4.1Zm1.8,14.5c-.5-.9,0-2.7,0-3.6,.9,.9,.5,3.2,0,3.6Zm.9-19.9c.9,0,1.4-1.4,.9-1.4-.9,.5-.9,1-.9,1.4-.4,.5,0,.5,0,0Zm3.6-9.5c-.9,2.3-2.7,6.3-2.3,7.2,.1-2.7,3.2-4.5,2.3-7.2Zm-2.2,21.7v-2.7c1.3,.5,.9,2.7,0,2.7Zm.9-6.8c.5-2.7,1.8-4.1,1.8-7.7,.9,0-.5-.9,0,0-.5,2.8-2.7,5-1.8,7.7Zm.4-14.9c.5-1.8,1.4-2.7,1.4-4.1,.5-.9,1.4-1.8,.9-2.7-.5,1.4-.9,1.4-.9,2.7-.9,.5-2.7,2.3-1.4,4.1Zm.5-120.5c-.5,.9,.9,.5,.9,.9,0-.5,0-.9-.9-.9Zm15.8,90.6c-1.8,2.7-4.1,5.4-5.4,9.5-2.7,5.9-6.8,10.9-8.6,17.7,0,.9-1.4,1.8-.5,2.7,0-1.4,.9-1.4,.5-2.7,3.6-5.4,6.3-11.8,8.6-17.7,2.7-2.7,4.1-6.3,5.4-9.5,.5,0,.5-.5,.5-.5,.9-.9,0-.9,0,0-.5,0-.5,.5-.5,.5Zm-14.5-88.3c.9,0,.5,.9,2.3,.9,0-.9-1.8-2.3-2.3-.9Zm1.9,250c0,.5-.9,.5-1.4,.5,0-.5,.5-.5,1.4-.5Zm.4-130c0,.9-1.4,.5-.5,.9,.5,1.4,.5-.9,.5-.9Zm0-13.6v1.4c.5,0,.5-.5,.5-1.4h.9c0-.5,.9-1.4,0-1.8,0,.5-.9,1.4-.9,1.8h-.5Zm1.4-103.3h.9s0-.5,.5-.5h-1.4v.5Zm2.7,.9c0-.9-1.8-1.4-1.4,0h1.4Zm.4,106c-.4,0,0,0,0,0h.5c1.8,0,0-2.3,0,0h-.5Zm.9,140.9c-.9,0,.9-1.4,1.4-.9,0,.9-.4,.5-1.4,.9Zm0-136.8c-.5,.5,0-1.4,0-1.4,1.4-.4,1,1.4,0,1.4Zm1.4-9.5c0,.5-.5,1.4,0,1.4,0-.9,.9-.9,0-1.4Zm1.4-2.3c0,.5-.5,.9,0,1.4,0-.5,.4-.9,0-1.4Zm.4-10.8c-.4,0,.5,.4,0,0,.5,0,.5-.5,.5-.9,.5,0,0,0,0,0-.5,0,0,.4-.5,.9Zm1.4,13.1c-.9-.5,.5-.9,0-1.8,2.2,0,.4,1.4,0,1.8Zm1.8-93.8v-.5h-1.4v.5h1.4Zm.4,1.8h.5v-.5q-.5,.1-.5,.5t0,0Zm.5,68.9h.9c.5-.9,.5-1.4,0-1.4,0,0-.9,.5-.9,1.4-.5,0,.9,0,0,0Zm.9,4.5c5-7.7,10.9-16.3,15-24-5.5,7.7-11.4,15.4-15,24-.9,.5,0,.5,0,0Zm2.7-5.9c0-.9,.5-1.4,.5-2.7,.5,0,0,0,0,0-.5,.9-1.8,1.8-.5,2.7Zm.9-57c0,1.4,.5,1.4,1.4,1.4,0-.1-.9-.1-1.4-1.4,.5,0,0,0-.5,0,0-.9-.5-.9-.5-1.4q0,.9,.5,1.4h.5Zm1.8,223.8c2.7-1.4,5-2.3,5.4-6.3,2.3,0,.5-1.4,0,0-1.7,2.6-5.4,2.6-5.4,6.3Zm2.3-218.4c0,.9,.5,.9,.9,1.4,0,.5,.5,.9,.9,.9v.5c0,.5,.9,.5,.9,.5,0,.9,.5,.9,.5,1.4,.5-.5,0-1.4-.5-1.4q0-.5-.9-.5c.9-.5,0-.5,0-.5,0-.5-.5-.9-.9-.9,0-1-.4-1-.9-1.4,0-1.4-.9-1.4-1.4-1.8-.9-.9-.9,0,0,0,0,.4,1,.9,1.4,1.8Zm-1.4,42.1c.5,0,0-.9,0,0-.9,0,.5,1.4,0,0Zm1.9,11.4c.5,0,.5,.9,.5,1.4-.5-.1-1-.5-.5-1.4Zm0-60.3h0Zm2.2,45.3c.5-.5,1.8-1.4,.5-1.4,0,.5-.5,.5-.5,1.4-.9,0,0,.5,0,0Zm1.8-32.6c-.9,.9,.9,0,0,0q0-.5-.9-.5c0-.9-.5,0,0,0q0,.5,.9,.5Zm0,41.2h.5c0-.9,.5-1.4,0-1.4-.5,.1-.5,.5-.5,1.4-.9,0,0,.5,0,0Zm1.4-38.9c0-1.4-.5-1.4-.9-1.4,0,0,.4,1.4,.9,1.4,0,.4,0,0,0,0Zm-.9,202.9c.9,0,2.3-.9,2.3-1.8,0,0,0-.5,0,0-1.4,.4-1.9,.9-2.3,1.8Zm.4-166.3h1.8q-1.4-1.4-1.8-1.8v1.8c-.9,0,.5,1.4,0,0Zm.5-36.2c0,.5,1.4,.9,1.4,.9,0-.4,0-.9-1.4-.9Zm5,5.9v.5c.5,.5,.5,0,0,0,.4-.5,0-.5,0-.5-.9-1.4-1.4-2.3-2.7-3.6,0,0,0-.5-.5-.5q0,.5,.5,.5c.4,1.8,1.8,2.7,2.7,3.6Zm-2.7,18.1s-.5,.5,0,.5c0-.5,1.3-.5,0-.5Zm0,175.3c.4,0,0-.9,0,0-.5,.5,0,.5,0,0Zm.4,10.9c.9,0,0-.4,0,0-.4,0,0,0,0,0Zm.9-187.5c1.4,0,0-1.4,0,0-.9,0,.5,0,0,0Zm.5,10.8v-1.4h.9c0,.5-.9,1.4-.9,1.4Zm1.3-26.7c0,1.4,.9,2.3,1.4,2.7,0-1.3-.5-1.8-1.4-2.7Zm.9,11.8c-.5-.5-1.4,1.4-.5,1.4,.1-.1,.5-1,.5-1.4Zm-.4,8.6c.4,0,0-.5,0,0-.5,.9,0,.9,0,0Zm1.3,.9c.5,0,0,.9,0,.9h-.5c.1-.5,.5-.5,.5-.9Zm2.3,176.7c-1.8-.9-2.7,1.4-1.8,1.4,.4-.5,1.3-.5,1.8-1.4Zm0-180.8c-1.4-1.4-2.3,.5-1.4,.5,0-.5,.9-.5,1.4-.5Zm-1.4-7.7c.9,0,0-.4,0,0-.4,0,0,.5,0,0Zm3.2,6.4h-.5c.5,1.4,0,1.4,.5,1.4,.5-1.4,.9-1.4,.9-2.3-.9-.1-.4,.9-.9,.9Zm2.3-2.8c.5,2.3,1.4,4.1,2.7,5-.5-.9-.5-3.6-2.7-5Zm2.7-17.6c.9-.5,0-.5,0,0-1.4,0,0,1.3,0,0Zm0,193.9c1.4-.9,4.1-2.3,3.2-3.2-.5,.9-2.3,2.3-3.2,3.2-.5,0,.9,1.8,0,0Zm19.5-123.3c.5,.9-1.4,.5-1.8,.9,1.4,.5,1.8,.5,2.7,1.8,0-.5,0-1.4,1.4-1.8-1.4-.9,0-2.3-1.4-3.6,0,.5,0,1.4-.9,.9,.9-2.3,.9-5-1.4-4.5,1.4-1.4-.5-3.2,0-4.5-.5,0-.9,1.4-2.3,.9-.5-3.6-2.7-7.7-2.3-11.3,.9,0,.5,1.8,1.4,1.8,0-2.3-1.8-2.7-2.7-2.3-.5-1.4,1.8-.5,0-1.8v.5c-1.4-3.2-4.1-6.3-4.1-9.1,1.4,0,0,1.4,1.4,.9,0-1.4-1.4-1.4-1.8-1.4-1.8-5.9-4.5-10.4-7.7-15,7.2,15,13.6,29.4,17.7,47.6,.4,.5,1.8-1.3,1.8,0Zm-17.7,113.3c0,.9-.9,1.4,0,1.4,0-.5,.5-.5,0-1.4Zm.5-165.8c.5,0,.5,.9,.9,0,0-.5-.9-.5-.9,0Zm.9,157.2c.9,0,0-.5,0,0-.5,0,.4,.4,0,0Zm7.7-12.7c-2.7,5.9-5.9,13.1-7.7,19.5,3.6-6.3,7.2-11.3,9.1-19.5,2.3-3.6,4.1-9.1,4.1-14,1.4-1.4,1.4-3.2,1.4-4.5,1.8-5.4,2.3-11.3,2.7-18.6,0-3.2,2.3-7.7,0-10v2.7c0,1.4-2.3,4.5,0,6.3-3.2,13.1-4.1,24-9.5,36.7,1.4,0,1.4,.9,1.4,1.4-.6,.5-.2-.4-1.5,0Zm-7.3-142.7c.5,1.8,1.8,2.3,1.8,3.2,.5-1.4-.4-2.7-1.8-3.2Zm2.3,171.2c-.5,0-.9,.5-.5,.5,0,0,1.4,0,.5-.5Zm1.3-166.7c-1.4-.5-1.8,1.4-1.4,1.4,.1-1.4,1.4-.9,1.4-1.4Zm.5,3.2c.5-.9-1.8-2.7-1.8-.9,.9,0,1.3,.9,1.8,.9Zm-.5,157.2c-.4,.5,0,.5,0,0,.5,.5,.5,0,.5,0,.5-1.4,1.8-1.8,.5-3.2,0,1.4-.9,1.8-.5,3.2h-.5Zm1,4.5c0-.5,1.4-1.4,1.4-2.3q-1.4,0-1.8,.5c.4,0-.6,1.8,.4,1.8Zm0-187.1c1.4-.9,0-2.3,1.4-4.1,0,.5,0,0,0,0,.9-.5,1.4-.9,2.3-2.3-1.4,0-1.8,1.4-2.3,2.3-1.4,.5-2.4,3.2-1.4,4.1Zm0-12.2s0-.5,0,0c-.5,.5,0,.5,0,0Zm1.8,43.9c-.5,0,0,0,0,0h.9c0,2.7,.9,4.1,2.3,4.5-.9,0-.9,.5-.9,.9,3.6,4.5,5,12.2,7.7,17.7,.5,1.4-.5,1.4-.5,1.8,2.7,3.6,2.3,10.4,5,15.9,2.7,16.8,4.1,34.9,3.2,54.4-1.8,13.6-5.9,27.2-9.5,40.8,3.6-.9,.9-5.4,3.6-5.4,0-3.2,0-5.9,2.3-6.8v-.9h.5c0-.5,0-1.8-.5-1.8q-.9,1.4,0,1.8c-1.8,.5,0-1.8-.9-2.7,1.4,0,2.3-1.4,2.3-1.8-.9-3.2,.5-6.8,1.4-9.5,.5,1.4-.9,2.3,.5,2.3,0-.9,.9-3.6,.9-5-1.4,0,0,2.3-1.4,1.8,.5-3.2,.5-5.9,1.4-7.7,.5,.5,0,4.1,.5,3.2,0-2.7,1.4-2.7,1.4-5.4,0,0-1.8,.9-1.8-1.4,0-.5,1.8,1.4,1.8,0-2.7-2.3,0-6.3-1.4-9.5,.9-.5,1.4-.5,1.8-.5-.5-.9,.9-2.3,.9-3.6-1.4-.9-1.4,1.4-1.4,.5-1.4-1.8,.5-3.6,0-5.9,.5,0,.5-.9,1.4-.9,0-4.5-1.8-6.8-1.8-12.7,.5,1.4,3.2,0,2.3-1.4-.5,1.4-1.8,.9-2.3,0,0-.9,.5-.9,.5-1.4-1.8,0-1.4-1.4-.5-2.3,.5,.9,.5-1.4,0,0-1.8-1.4,.5-1.8,.5-2.7-2.7-.9-1.8-3.2-1.4-5.9-.5,0-.9,0-.9-.5,0-.9,0-2.3,.5-.9,.5-2.3-1.4-2.7,0-5-.5,0-1.4,.9-1.4-.5,0-.9,1.4-1.4,1.4-2.3-.5-1.4-1.8-1.4-2.7-2.3,.9,0,.9,.5,1.4,.5-.5-1.4-.5-1.8-.5-2.7h-1.8c1.4-2.3,0-3.6-.5-5.4,.5-2.3-3.6-5.4-1.8-8.2h-1.8c1.4-.9,4.1-2.3,1.8-2.7,0,0-.5,.5-1.8,.5-2.3-1.4,0-4.5-2.7-5.4,0-.5,1.4-.5,1.8-.9-1.8-1.4-3.6-2.3-3.2-4.5,.9,0,0,0,0,0-2.7-3.2-1.8-7.2-5.4-10,0-1.4-.9-1.8-1.4-3.6v-.5s-1.8,.5-1.4,1.4c0-.9,1.4,0,1.4-.9-1.6,1.7,.6,1.7,.2,3.5Zm2.2,139.6c0,3.2-2.3,4.5-2.7,7.2,.9-1.8,4.5-5,2.7-7.2Zm5.5-192.6c0,.5-.5,.5-.5,1.4-2.3,.9-3.6,2.7-5,4.1h-.5c0,.9-1.4,.9-1.4,1.4h-.5c-.5,.5,0,.5,0,0,.5,.5,.5,0,.5,0,1.4,0,1.8,0,1.8-1.4,1.8-1.4,3.2-2.7,5-4.1,.6,0,.6-.9,.6-1.4,5.4-3.6,10.9-7.2,16.3-11.8,.5,0,1.4,0,1.4-.5-.9,0-1.4,0-1.4,.5-5.9,3.7-11.8,7.8-16.3,11.8Zm-7.3,204.8c0-.5,0-.9-.5-.9,0,.5,0,1.4,.5,1.4v-.5Zm0-145c0,1.4,0,1.8,.5,2.7,0-1.3,0-2.7-.5-2.7Zm1.4,140.9c0,1.4-1.4,1.8,0,1.8,0,0,.4-1.3,0-1.8Zm2.7-188.4c-.5,0-.9,0-.9,.5-1.4,0-1.8,1.8-1.4,1.8,0-.9,1.4-.5,1.4-1.8,.4,.8,.9-.1,.9-.5q.5,0,.5-.9c.5,0,0,0,0,0-.5,0-.5,.9-.5,.9Zm.4,178s0-.5-.9-1.4c0,.9-.9,1.8,0,1.8,0,.1,.5-.4,.9-.4Zm0-177.6c1-.4,0-.4,0,0-.4,0,.5,.9,0,0Zm1.4,65.3c.9-1.8-.5-3.2,0-4.5h-1.4c1.4,1.3,0,4,1.4,4.5Zm0-19.5c0-.5,0-.9-.9-.9,0,.4,.5,.9,.9,.9,0,.9,.9,0,0,0Zm0,127.7c1.8-2.7,3.6-6.3,3.2-10.4,2.3-4.5,3.6-10,3.2-15-1,8.7-4.6,16.8-6.4,25.4-.9,0,.9,1.4,0,0Zm0-126.8c0,.9,.9,.9,1.4,.9,0-.5,0-.9-1.4-.9Zm2.7,27.6c-.9,0-1.4-.9-1.4-.9,0-1.8-1.4-3.2-1.4-5.9,1.9,1.8,1.5,4.1,2.8,6.8Zm-1.3,105.1h-1.4v.9c.9-.4,1.4-.4,1.4-.9Zm.4-180.7c2.3-.5,0-1.4,1.4-2.3-1.4,0-1.4,.5-1.8,.5,0-.5,.5-.9,.5-1.4-.5,0-.5,.5-.5,1.4s1.3,.9,.4,1.8Zm.9,177.6c-1.4,0-1.4,1.4-1.4,1.4,1.4-.1,1.9-.1,1.4-1.4Zm1.4-119.2c-.9,.9,1.4,1.8,1.4,2.3-.1-.9-.1-1.8-1.4-2.3Zm0-1.4c1.3-.4-.5-1.8,0,0-.5,0,0,1,0,0Zm0,42.2c0,1.4-.5,1.4,0,1.8,1.3-.5,1.3-2.3,0-1.8Zm0-16.8c1.4-.9,1.4-1.4,0-1.4v1.4Zm1.8,1.4c-.5-.5-1.8,0-1.8,0,0,1.8,1.8,1.8,1.8,0Zm0,4.5h.5c.5,0,.5-.5,.5-1.4-.9-.5-.5-.5-.5-1.8-.9-.5-.5,1.4-2.3,.5,0,.9,1.4,2.3,1.4,2.7-.1,.5,.4,.5,.4,0Zm-.5,16.8c0,2.3-1.4,4.5-1.4,7.7,1.9-1.4,1.4-5.9,1.4-7.7Zm-1.3,9.9c0,2.3,1.4,4.1,0,5.4,1.8-.8,1.3-4.5,0-5.4Zm1.8-26.7h0Zm0,.9c.5,1.4-.5,1.4-.5,2.3,1.4,.4,2.3-2.3,.5-2.3Zm0,4.5c0,2.3,.5,3.6,2.3,5,.9-2.7-1.8-3.6,0-5.4-.5-.5-.5-1.4-1.4-1.8-.5,1.4,.9,3.6-.5,4.1,.1-.9,.5-2.3-.4-1.9Zm17.7-114.6c-1.4,0-1.8,1.4-3.2,1.8v.5c-2.7,1.8-5.4,3.6-7.3,5.4-.9,0-.9,.5-.9,.5-1.8,1.4-4.1,3.2-5.4,5.4h-.5c-.5,0,0,.5,0,0h.5c2.7-1.4,4.1-3.6,5.4-5.4q.9,0,.9-.5c2.7-.9,5-3.2,7.3-5.4v-.5c1.8,0,2.7-.4,3.2-1.8h.5c1.8,0,0-.9,0,0h-.5Zm-15.9,163.6c-.9,1.8-1.4,5-.9,5.4,.9-.4,2.3-4.1,.9-5.4Zm0-44c0,1.8-1.8,4.1,0,5.4,2.3,.1,1.8-4,0-5.4Zm1.8,14.1c-.5-1.8,.5-3.2-.5-4.5-2.3,1.4-2.3,5-1.4,7.7,.1-2.3,1.5-2.3,1.9-3.2Zm-1.8-10c-.9,0,0-1.4,0-1.4,.5,0,.5,2.3,0,1.4Zm1.4,2.7c-.9,0-.9,1.4-.9,1.8,1.8,.5,1.8-1.8,.9-1.8Zm0,11.8c-.9,.5,0,.9,.5,.9-.1-.4-.1-.9-.5-.9Zm2.2-126.8c-.4,.4,0,.4,0,0q.5,0,.5-.5c.5,0,0,0,0,0-.5,0-.5,.5-.5,.5Zm1.8,.9c.5,0,.9-.9,.5-1.4,0,.9-.5,.9-.5,1.4Zm.5,99.2c-.5,.9,0,3.2,1.4,5-.9-2.3-.9-3.7-1.4-5Zm1.4,39.4h-1.4v2.3c.5-.5,.5-1.9,1.4-2.3Zm-.9-22.7c-.5,.9-.5,2.3,.9,1.8,.4-.9,.9-1.3-.9-1.8Zm6.3-131.8c1.4,.9,0-.9,0,0-.5,.9,0,.9,0,0Zm1.4,8.2c0-.5-.5-.5-1.4-.9v.5c.9-.1,.9,.4,1.4,.4Zm3.6-1.9c.5-3.2-5,.9-3.2,1.4,.5-1.4,1.8-2.7,3.2-1.4Zm.4-3.6c.5-.4,0-.4,0,0,0,0,0,.5,0,0Zm.5,.5c0,.5-.5,.5-.5,.5,.5,1.3,2.3-.1,.5-.5Zm0-.9c.9,0,1.4,0,1.4-.9-.5,0-1.4,0-1.4,.9Zm1.8,.9c.5,0,.5,.5,.5,.5v-1.4q0,.5-.5,.5v.4Zm2.7-.9c0-1.4,.5-1.4,1.8-1.4,0,.5-.4,1.4-1.8,1.4Zm9.1-4.1h-.5c0,.4,.5,0,.5,0Zm2.2-1.4h-1.4v.5q1.4,0,1.4-.5Z" fill="#67131e"/><path d="M1060.2,107.89c-1.4,0,0,.5,.5,.5,0,.9-.5,1.4-.5,1.4-3.6-1.4-3.6-.5-5.9,.9-8.6-.9-20.4,1.4-30.4,1.8-2.7,15-4.1,28.5-6.8,43-2.3,0,0-4.1-2.7-2.3,1.4-10,2.7-16.8,3.2-26.3-3.6,15.4-4.5,31.7-7.2,46.2-1.4-1.8,.9-5-.9-6.3-1.8,6.8-2.3,12.7-2.7,19,2.3-2.7,.9-9.5,2.7-12.7,1.8,.5,1.8,5.4-.5,5.4,0,16.3-5.4,39.4-5.9,57.1-.5,0-.5-.9-.9-.9,0,2.3,1.4,4.1-.5,6.3,0,10.9-2.3,21.7-2.3,32.6-2.3-1.4-1.4-4.5,0-6.8-.5-2.3-1.4-5.9,0-8.2,0-1.4-.5-1.4,0-2.3,0-.5,0-1.8,.9-1.8-1.4-5.4,1.4-10.4,.5-16.3-1.8,5.4-1.8,12.7-1.8,19-2.3,16.3-4.1,34-4.5,51.6,2.3,.9,0-2.7,2.3-1.4-2.3-7.7,.5-16.3,0-24.5,2.3,1.4,.9,6.3,.5,8.6-.5,19.9-1.8,39-1.8,56.6-.5,.5-1.4,.5-2.3,.9,.9,.9,1.8-.5,2.3,.5,0,6.8,1.4,15,1.4,21.3q0,.5,.9,.5c-2.3,4.5,.5,12.2,1.8,18.1,.9-5.9-1.4-14.5-.5-20.4,.5,.5,1.4,.9,1.4,2.7,1.4-.5,.5-2.7,.5-3.2-1.4-1.4-1.4,.5-1.8,.5,0-3.2-1.8-4.5-1.4-8.2,1.8-.5,.5,1.4,1.8,.9,.9,0,.9-.9,.9-1.4,0-1.8-1.4,0-2.7-1.4-.5-1.4,1.4-.5,1.4-1.8,0,1.8,2.3-.5,3.2,1.4,0,2.7,0,3.6,.5,5.9-.5,1.8-.9,1.4-1.8,1.8,0,.9,.9,.5,1.4,.9,.5,5.4,.9,10.9,2.3,14.9,.9,.9,1.8-.9,2.7,0,.5,5,.5,9.5,4.1,12.2-1.8,4.1-4.5,5.4-8.2,5-2.3-2.3-5.9-3.6-8.6-5.4-5.4-6.8-5.4-19.5-7.3-29.4-2.3-32.6,0-66.6,3.2-97.9,1.8-10.9,2.3-20.4,2.7-31.3,.9-5,.9-10.4,1.8-15,1.8-10.9,2.3-22.7,4.5-34,1.4-10.4,2.3-20.4,3.6-31.3,1.8-13.6,4.5-27.2,6.3-40.8-37.1,2.7-76.6,9.5-112.4,12.2-.5,0-1.8,0-2.3-.5-.5-1.4,0-1.8,0-2.3-1.4,0-1.8,.9-2.3,0,.5-1.4,0-2.3,.9-4.1,5.4-4.1,14.9-4.1,23.6-5,12.7-2.7,28.5-4.5,39.4-5.4,16.8-2.7,33.5-5,54.8-7.2,1.8-7.7,2.7-16.3,3.6-24.5,6.8-20.4,4.1-47.6,15.9-63.9h3.2c1.8,.9,4.1,2.3,5.4,3.2,0,2.3,0,3.6,.9,5-.5,4.1-.9,6.8-.9,10.9-1.4,4.1-3.2,8.6-2.3,13.6-2.3,4.1-3.2,10-3.6,15-1.4,14-5.9,25.8-7.3,38.5,1.8-.5,5.9,0,7.3-.5,20.4-1.4,45.3-5.9,65.7-1.4,0,2.7,.5,5.4,2.3,6.8,0,4.5-.9,7.7-4.1,9.5-2.3,0-4.1-1.8-6.8-1.8,0-.5,0-2.3-.5-2.3-3.2-.9-5.4,1.4-7.2-.9-1.8-.5-.5,.5-1.8,.9-.5-.5-.5-2.3-1.4-2.7-1.8,.5-4.5,0-5.4-.9-1.4,.9,.9,.9,0,2.7-2.7-1.8-8.2,.9-8.6-2.7-1.4,.9,.5,.9,0,2.3-1.8,.5-3.6,0-5-.9,0,.2-.5,.2-.5,.2Zm-70.2,243.3c0-4.5-.9-9.5-.5-14.5,.5-5.9,0-10.9,0-16.3,0-16.3,3.2-30.8,3.6-46.7,1.4-13.6,2.3-27.2,4.1-42.1-.5,0-.5-.9-.5-.9-4.1,37.6-8.2,77.9-8.6,113.7,1,2.3,.1,5,1.9,6.8Zm-.4,4.1c0,1.4-.5,1.8,.5,2.3-.1,0,.8-2.3-.5-2.3Zm0,4.5v2.3c.9,.5,.9-2.7,0-2.3Zm3.1-68.4c1.4,.5,1.4-1.4,.5-1.4l-.5,.5v.9Zm1.9,36.7h-1.4c0,6.3-.5,15,.9,20.4,.9-6.3,0-12.2,.5-20.4Zm-.5-42.1v-.5h-.9v.5h.9Zm.5,31.7c-1.4,2.7-1.4,7.2-1.4,9.5,2.3-.9,1.8-8.6,1.4-9.5Zm.4-7.2h-.9c0,1.4-.9,4.1,0,5.9,2.7-.5,0-3.7,.9-5.9Zm-.9,40.3c.5,4.1-1.4,12.2,.9,16.3-.4-5.5,.5-10.4-.9-16.3Zm3.2-242.9c-.5,0-3.2-1.4-2.7,0,.4,1.4,2.7,.5,2.7,0Zm.4,115.1c0,1.8-2.3,4.1-.5,5.9-.4-1.8,1.9-4.1,.5-5.9Zm.5,60.3c-2.7-1.4-.9-4.1-.5-5.9,1.4,1.8,1.4,3.6,.5,5.9Zm1.3,68.4v-1.8c.9,0,1.4,.5,1.8,.5,.9,1.4,.9,3.6,.9,6.3-.9,0-1.8,0-1.8,.9-.9-.9,.5-3.6-.9-5-1.8,0,0,2.7-1.4,2.7-.9-.9-1.4-5.4-.5-7.7,1.9,0-.8,4.1,1.9,4.1Zm-2.2-109.2v1.4c.9,.4,.9-1.4,0-1.4Zm6.3,26.3c1.4,.5,1.4,5.4-.5,6.8h1.4c-1.4,5.4,.5,11.8-1.8,15.9-.5,1.4,.9,.5,.9,2.3-.9,.5-1.4-.5-2.3,.5,1.8,1.4,3.2,4.1,1.4,6.8-1.4,.5,0-1.4-.9-1.4,0,.9-1.4,4.1,.5,4.5-.5,4.1,0,6.3,0,9.5-1.4-.5-1.8,0-1.4,1.4,0,.9,.9-.5,.9-.9,.5,.5,.5,1.8,.5,3.2,0,.5-.5,.5-1.4,.5,2.3,.9,1.4,3.6,1.4,7.2-1.4,0-.9-1.8-1.4-1.8s-1.4,1.4-1.4,2.3,1.4-.5,1.8,0c.5,2.7,1.4,6.8,0,9.5-.9-.5-.9-2.7-3.6-2.3,0-.5,1.4-.5,.5-1.8,.9,0,.9,1.4,1.4,1.4v-2.3c-.5,0-1.8,0-2.3-1.8,.5-2.3,.9-5,.5-7.2,.5-.5,1.4-.5,1.8,0q0-.9-1.8-.9c1.4-10.9,1.4-21.3,1.8-32.2,1.8,0,.9,1.8,1.4,2.7h.9c1.4-1.8,.9-5.9-2.3-5.9,.9-2.7,0-5.4,1.4-7.7,.9,0,.9,1.4,1.8,1.4,0,1.4-.9,2.3-1.8,2.7-.5,2.7,1.8,2.3,1.8,3.6,2.3-.9-.9-1.4-.9-2.7,3.2-.5,1.4-5.4,.5-6.8-.9-.9-.5,.9-.9,1.4-.9,0-.5-1.4-.5-2.7,.9,0,2.3,0,2.7-1.4,0-.9-.9-.9-.9-2.7,.5,1.4,.5,0,.9,0-.5,0-1.4-.5-.9-2.7,.9,.5,.9,0,2.3,0-.1,.2-1.5,1.1-1.5,1.6Zm-6.3,88.8c0-.9,1.8-.9,2.3-.9,0,.5-.5,.5-.5,.9h-1.8Zm2.2-82c-1.4,0-1.8,0-1.8,.5-.9-.5,0-2.3,.5-2.3,1.3,0,1.3,.4,1.3,1.8Zm2.3,61.1c-.5,4.1,.5,7.7,0,12.7-1.4,0-.9-.9-2.3-.5,1.4-.5,.9-2.3,1.8-3.2-.9-.9-2.3-1.4-1.8-3.6-1.8,0,0,3.2-1.8,2.3-.5-3.6-.5-7.2,0-11.3,1.8,1.8,1.4,3.2,4.1,3.6Zm-.5-140.4c1.8-5.9,3.2-14.5,2.3-19-1.8,15-4.1,29-5.9,45.3,3.2-7.7,2.7-16.3,3.6-26.3Zm-2.2,150.9c-1.4,0-.9-1.4-1.4-1.4,0-.9,1.4,0,1.4,1.4Zm1.8-16.4c.9-2.3,0-4.1-1.4-5,0,1.4-1.4,.9-.5,2.3,.5,.5,1.4,1.4,1.9,2.7Zm0,10.9v-3.2c-1.8,.5-.5-1.8-1.8-1.8v4.1c.4,0,1.3,1.8,1.8,.9Zm-1.4,23.1s0,1.4,.9,1.8c.5-.4,.5-1.8-.9-1.8Zm1.4-34c-1.4,1.4-1.4,1.8,0,1.8,.4-.4,.4-1.8,0-1.8Zm0-97.8c-.5,1.4,0,3.6,0,4.1,.4,0,1.4-2.8,0-4.1Zm1.4,38.9c-2.7-.5-.5-2.3-1.4-3.2,1.4,.1,.9,2.3,1.4,3.2Zm0-44.4q-.5,0-.9-.5c0,1.8-.5,3.2-.5,5,1.8-1.3,.4-3.5,1.4-4.5Zm-1.4,92.5v.5c.9,.4,.9-1.9,0-.5Zm3.6-54.4q-1.4,0-1.8-.5c-.5,.5,0,2.3-.5,3.2-2.7-2.3,.5-4.1-.5-6.8,.9,0,1.4,0,3.2-.5-1.4-1.4-1.4-2.3-1.4-4.1,.9-.5,1.4-.9,1.4-2.3,1.4,1.5,.5,8.7-.4,11Zm-1.3-48.9c1.4-4.1,2.3-8.6,1.8-14.5,.5-1.4,1.4-1.8,1.4-3.2,0-.5,0-.9-.9-.9-1.8,9.5-2.3,18.1-4.1,29,2.2-2.7,1.3-6.8,1.8-10.4Zm0,42.6c-.9,0-1.4-1.8-.9-1.8,.9-.1,.9,1.3,.9,1.8Zm-.5,2.7c0,1.4-.5,2.3,.5,2.7,.4-.5,.4-2.7-.5-2.7Zm2.3-20.9c1.8,0,.5-1.8,2.3-1.4,.5,.9,0,4.1-.9,4.5,.9,.9,.9,2.3,.5,5-.5,0-.5,.5-1.8,0,.5,1.8,1.4,1.8,.5,4.1-.9,0-.9-1.4-2.7-1.4,.9-5.4,1.8-10.9,1.8-16.3,.3,1.5,.3,4.2,.3,5.5Zm-1.4,12.7v1.4h-.9v-1.4h.9Zm.9-77.4c1.8-11.3,2.7-19,3.2-31.7,1.8-1.4,0-2.7,0,0-.9,9.5-4.1,22.6-3.2,31.7Zm.5,68.4c0,.5-1.4,1.8,0,1.8,.4-1.4,1.3-1.8,0-1.8Zm5-32.2v3.2c-.9-1.4-.5,.5-2.3,.5,0,.9,1.8,1.8,1.8,.5,.5,1.4,.5,4.1-.5,4.1v-2.7c-1.4,0-1.4,.5-1.8,1.8,0,.9,.5,2.3,1.8,2.7,0,3.6,0,5.4-1.4,9.1-.5,0-.5-1.4-.9-1.4-.5,0-1.4,1.4-1.4,2.7,1.4,0,2.3,0,2.3-.9,1.4,.9,0,2.3,0,3.6-1.4,0-.9-1.4-1.4-2.7-1.4,0,0,1.8-1.4,1.4v-5c1.4-.9,1.4,.9,2.3,0,0-1.4-.5-1.8-1.8-2.3,0-6.3,1.4-10,1.8-15,2,.4,.6,.4,2.9,.4Zm-3.7-20.4c-.9,.5-.9,1.4-.9,2.7,2.3,.5,1.4-2.2,.9-2.7Zm1.4-1.8c-.5,0-.5-.5-.9-.5-.5,.5-1.4,.5-.5,1.4,.9,0,.9-.4,1.4-.9Zm-.9,34c0,.9-.5,2.3,.9,2.7,0-.5,0-2.3-.9-2.7Zm0-36.7v.5c.9,.4,.9-1.9,0-.5Zm8.1-16.3c.9,4.1-.9,7.7-.9,10.4-.5,.9-1.4,.9-1.4,0-.9,1.4-.9,1.8-.9,2.3,.9,1.4,1.4,0,1.8-.5,1.4,1.8-.5,2.7-.5,4.5-2.7,0-3.2,2.7-1.8,5.4,.5-1.4,.5-2.7,1.4-3.2,1.4,1.4,0,5.9-.9,7.7,0,2.3,.9,5-.5,5.4,.5,2.3-.9,5-1.4,7.7-.9,.9-2.3-2.7-2.3,0-.5-.5,0-2.7,0-2.7q1.4,0,1.8-.5c-.5-1.8-1.8,.5-1.8-.5,1.4-4.1,0-9.5,1.8-13.6,1.8,0,0,3.6,2.3,3.6-4.5-7.2,.9-19,0-27.2,1.5,.3,1.5,1.2,3.3,1.2Zm-5.4-36.3c0,2.3-1.8,4.5-.5,7.2,.1-2.6,2.3-5.8,.5-7.2Zm1.8,66.6v-1.4h-1.8v1.4h1.8Zm0-46.6c-1.4,2.3-.9,4.5-1.4,7.3,1.9-1.4,1.9-5.5,1.4-7.3Zm0-26.3v-1.8h-.9v1.8h.9Zm.5-3.6v-3.6h.9v-1.4c-.9-.9-.9,0-.9,1.4,0,.8-1.8,3.1,0,3.6Zm1.3,56.1c0-1.4-.5-1.8-1.4-1.4v1.4h1.4Zm-1.3,4.6v1.8c.9,.4,.9-2.3,0-1.8Zm3.6-29c-.5,1.4-.5,2.7,1.8,2.7-1.8,4.1-.5,5.9-1.8,9.5-1.4-.9-1.4-1.4-1.4,.5-2.3-.5-1.4-4.1-.5-4.5-1.8-2.7,.9-5.9,.5-8.2,.9-.9,.9,0,1.4,0Zm-1.8-16.3c-.5,0-.9,.5-.9,1.4,.9,.4,1.3-1.4,.9-1.4Zm0,32.6s0,.9,.5,.9q-.1-.9-.5-.9Zm1.8-19c.5,.9,0,.9,0,1.4-1.4,0-1.4-.9-1.4-1.8,.9-.1,.9,.4,1.4,.4Zm-.9,9.5c0,.5,0,2.7,.5,1.8-.1-.5-.1-3.2-.5-1.8Zm2.7-6.4c-.5,.9-.5,0-1.4,.9,0-.9,1-.9,1.4-.9Zm0-43c.5-.9,0-.9,0,0-.4,0,.5,.9,0,0Zm1.4,8.6c-.9,1.8-1.4,2.3-1.4,4.1,1.8,0,2.3-4.1,1.4-4.1Zm0-4.5c.5,1.8-1.4,3.6,.5,4.5-.1-1.4,.8-4.1-.5-4.5Zm1.3-3.7s-.5-.5-.5,0c1.8,0-2.3,2.7,.5,2.7v-2.7Zm39.4-14.5c-.9,.5-1.4,.5-2.7,.9-6.8,0-17.7,0-26.7,1.4-.5,0-3.6,.5-4.1,2.3,14,.5,27.6-2.3,40.8-1.8,8.2-1.8,13.6,0,21.3-.9,3.2,0,4.5,.5,6.8,0,0-1.8-1.8-1.8-2.7-1.8-11.4-1.9-21.8,.9-32.7-.1Zm-29.4,7.7c-.5,0-.9-.9-.9,0,.4,0,.4,1.9,.9,0Zm3.6,0c0-2.7-4.1-.9-2.3,.5,.5-1.4,2.3,0,2.3-.5Zm2.7-1.8c-1.4,.5-1.4,1.8,0,.9v-.9Zm5,1.8c.5-1.4-1.8-2.3-2.3-1.4,.9,0-.5,.5,0,1.4,.5,1.4,1-1.3,2.3,0Zm3.2,0c0-1.4,0-2.3-.9-2.7-.5,1.8,0,.5-1.8,0v2.7c1.8,0,1.8-.9,2.7,0Zm0-2.7c0,.5,0,.9,1.4,.9-.1-.4-.1-.9-1.4-.9Zm1.8,1.4c-.5-.5-.5,0,0,0,0,.4,0,0,0,0Zm.4-1.4c-.5,1.8,2.7,2.7,3.2,1.4-1.3-.5-1.3-1.4-3.2-1.4Zm8.7,0c-2.7,1.4-4.5-2.3-5.4,.9,2.2,0,4,.9,5.4-.9Zm-2.8,4.1v-1.4h-.5v1.4h.5Zm4.1-2.3c-.5,.9,0,2.3,0,.9v-.9Zm5.9-2.7c-1.8,0-1.8,.9-2.3,0,0,1.8,.5,.9,2.3,1.4v-1.4Zm-.4,3.6c.5,0,.5,.5,.5,0h-.5Zm2.2-1.3c.5,0,0-1.4,1.4-1.4,.5,.5,3.2,.9,4.5-1.4-2.7,.5-3.6,.5-6.3,.9,.4,.5-.5,1.9,.4,1.9Zm3.6,0c-.5,1.4,.5,1.8,.5,1.4-.5-.1,0-1.4-.5-1.4Zm5,1.3v-1.4c-.5,.5-1.4,.5-1.8,.5,0,1.4,1.8,1.4,1.8,.9Zm2.7-4c0,.9,.5,1.4,2.3,1.4-.9-1.4-1.3-1-2.3-1.4Zm12.7,4c0,.5-.9,1.8,0,1.8,0,.1,.9-1.8,0-1.8Z" fill="#67131e"/><path d="M1053.9,216.19h-1.8c-.5,1.8,1.4,1.8,1.4,3.2-.5,.5-1.4,.9-1.4,1.4,.5,1.8,.9,0,1.4,0-.5,1.4-1.4,1.8-1.8,2.7,0,0,.9,0,.5,1.4h-1.4c.9,3.6,0,4.5,0,8.2,0,1.4,.9,1.4,1.4,1.4-1.4,.9-.5,3.2-3.2,4.1,1.8,1.4,.5,2.7,2.7,2.7-.9,1.8-1.4,5.4-3.2,6.3,1.8,1.8-1.8,4.1,.9,4.5,0,.9-.9,.5-.9,.9,.9,.9,1.8,3.6,.9,4.5-1.4,0-1.4-2.7-1.4-4.1-1.4,1.4,0,1.8,0,4.1-1.4,0-1.8,0-1.8,1.4-1.8,0-.5-1.4-1.8-1.4-.5-.5-.5,0-.9,1.4-5-4.1-5-13.6-5.4-19.9-.9-18.1,3.2-37.1,4.5-53.5-.9-2.3,.9-3.6,1.4-5.9,1.4-1.4,2.7-2.3,4.1-3.6,3.6,0,5-.5,8.2,0,0,.5,0,1.4,1.4,1.4,.5,3.2,2.7,6.3,1.4,10.4-.9,1.8-2.3,4.5-.9,7.2-1.8,4.1-1.8,10-4.5,15,0,1.4,1.4,.5,1.4,2.3-2.6,.3-1.2,2.1-1.2,3.9Zm-10.4,38.5c-1.8-8.2-.9-14.5-1.8-24.5,1.8-10,3.6-20.4,2.7-29.9-1.8,5.4-2.7,15.4-3.2,23.1-1.4,9.6-2.7,23.2,2.3,31.3Zm.4-16.3c.5,0,1.4,.5,1.4,0-1.4-5.9,2.7-15-.9-19-.9,8.2-.9,19.5-.9,27.6,2.7-1.8,.9-6.3,.4-8.6Zm2.7-20.4c0-1.4-.9-.9-.9-2.3,.5,0,.9,0,.9-.5-.5-2.7,1.8-5,0-7.2,0,2.3-2.7,6.8-1.4,10,.5-.9,1,.5,1.4,0Zm1.4,30.8c-1.8-.9-1.8,.9-1.4,.9,0-.4,1.4-.4,1.4-.9Zm.5-13.5c-.5,0-.5-.9-1.8-.5,1.4,.9,0,1.8,0,2.3,1.3,0,1.8,0,1.8-1.8Zm-1.9,5.8v3.2c1.4-.4,1.4-1.8,0-3.2Zm1.4,6.4c0-.9,0-2.3-1.4-2.3v1.8l1.4,.5Zm0,4.5c0-.5,0-.9-1.4-.9v.5c1.4,0,1.4,.4,1.4,.4Zm0-48.9c-1.4,.9-1.4,3.2,0,4.5,0-1.3,.9-4.1,0-4.5Zm0,29c0,.9-1.4,2.3,.5,2.3,0-1.4,.4-2.8-.5-2.3Zm2.3-1.8v-.9h-1.4v.9h1.4Zm0,20.8c0-1.4-1.4-1.8,0-2.3,.4,0,1.3,2.8,0,2.3Zm1.8-22.6v.5c-.5,0-.5-.5-.5-.9,.5-.6,.5-.1,.5,.4Zm16.3-89.7c0,4.1-2.7,5.4-4.5,8.2-3.2,1.8-5-1.4-7.3-.9,0-1.8-1.8-1.4-2.3-3.2-.4-9.1,11.4-11.8,14.1-4.1Z" fill="#67131e"/><path d="M1084.7,318.59l.5,1.4v2.3c-2.3,0-2.3-.9-4.1-.9-.5,1.8,1.4,1.4,1.4,2.7,0,.5-1.4-1.4-1.4,.5,0,1.4,0,.5,1.8,.9,0,.9,.9,1.4,1.8,2.7-2.3,1.4-.9,2.7-1.4,5q-.9,0-.9,1.4c-1.4-.9-1.8-1.4-1.8-3.6-2.3,1.8,1.8,4.1,1.8,5.9-1.8,0-1.4-1.8-2.3-2.3-1.8,1.8,.9,2.7,2.3,4.1,0,.5-1.4,.5-1.8,0,0,1.8,1.8,1.8,1.8,3.2-2.3,5.4-1.4,5.9-1.8,13.1-.5,0-1.8,0-2.3,.5,2.7,1.4,.5,4.5,.5,7.7-2.3-.5-.9,1.8-2.3,1.8-1.4,.5-.5-.9-1.4-1.4-.9,0,0,1.4-.5,1.8,.9,0,1.4,1.4,2.3,2.3,.9,0,0-.9,.9-.9,0,.9-.9,2.3,0,3.2-1.4-.5-1.4-2.3-2.7-.9,0,2.3,3.2,2.7,1.4,5,0-.9-1.4-1.8-1.8-.5-.5,.9,.5,1.4,.5,1.8,.9,.5,.5-.9,1.4-.5-.9,3.6-.5,7.7-1.8,10.9-.9-.5-.5-1.8-1.8-1.8,0,.5,0,4.1,1.4,4.5,0,.9-1.4,0-1.4,.9q0,.5,.9,.5c-1.4,1.8-.9,4.1-1.4,6.3-1.4,1.4-1.4,0-2.3,0-1.4,0,0,1.4,0,2.3s.5-.5,1.4,0c0,1.4-.9,2.3-1.4,3.2v-1.4c-1.4,0-1.4,1.4-1.4,1.4-.9,0,0,.5,0,1.8-.5,.5-.9,0-2.3,0,2.3,.9-.5,2.3,.9,4.5,.9,.5,.9-1.4,1.4,0,0,1.8-.5,.9-1.4,.5-.9,1.4-.9,2.7,0,4.5q-1.4,0-1.4,.9c0,4.1-2.7,8.2-3.2,11.3-.9,0-.9-.5-.9-1.4-1.4,2.3,1.4,4.5-.5,6.8-5.4,1.8-2.3,7.7-3.2,11.8h-1.8c0,.9,1.4,.9,1.4,2.3-1.4,1.8-1.8,2.7-1.8,5-.5,.9-.9,0-2.3,0,2.3,3.6-3.2,5-4.1,8.2,.5,1.8,1.4-.5,1.4,0,.5,1.8-.5,1.8,0,2.7-1.4,.5-1.4-.5-2.7,0,0,1.4,1.4,.9,1.4,2.3h-1.8c.5,1.8-.9,2.7-.9,5-.5,0-.9-.5-1.4-.5,0,1.8,.9,.9,.5,2.3-1.8,5.4-4.5,6.8-6.8,10.4-4.5,7.2-8.6,14-18.1,13.6-13.6-4.1-23.1-11.8-25.8-25.8,0-.9-.9-2.3-1.4-2.3-1.8-32.6,5.4-63.9,15-89.7,14.5-39.4,32.6-75.2,55.7-106,4.1-4.1,7.7-10,11.3-13.6,2.3-17.7,1.8-38.1,1.8-53.9-.9-8.6-1.8-14.5-1.8-22.7-1.4-3.6,1.8-5.9,2.7-7.7,5,0,8.2,1.4,10.4,2.7,0,.9-.5,1.4-.5,1.4,6.3,6.8,3.6,19,6.3,28.1-.5,12.2-2.7,24-1.8,34.4,19.5-20.4,43.5-38.1,69.3-50.3,3.2-2.3,6.8-2.7,10-5,5.9-1.8,10.4-4.1,16.3-3.6,3.6,0,5.9,.9,7.7,3.2,.5,1.4,0,3.2-1.4,3.6-1.4,.5-.5-.9-1.8-.9h-.9c-10.9,4.1-20.8,8.2-29.9,15-.9,0-.5-1.4-1.4-1.4-.9,.9-.5,1.8-.9,3.2-6.8,2.7-12.7,7.7-18.1,11.8h-1.4c-1.4,1.4-3.6,1.8-4.5,3.2-.9,.9-.5-.9-1.4-.9,0,.9,.9,.9,.5,1.8-2.7,1.4-3.6,2.7-5.9,4.1,0-1.4,.5-1.4,.5-1.8-1.4,.5-1.4,2.7-4.1,2.7,0,1.4,.9,1.4,.9,1.8-2.3,1.8-3.6,3.6-6.8,4.5-2.3,1.4-2.7,3.6-5.4,3.6v2.3c-5,4.5-10,7.7-14,13.6-1.4-1.4,1.8-1.4,.5-2.3-1.4,0-1.4,1.4-2.7,2.3q.5,.5,1.4,.5c-1.4,2.3-4.5,3.2-6.8,5.4-.9,6.3-1.8,10.4-2.3,17.7-.5,.9-1.8,.9-2.3,1.8,0,1.4,1.8,0,2.3,.9-.5,3.2-.5,6.3-1.4,9.1-1.4-.9-1.4-.5-3.2-.9,0,.9,0,1.4,.5,2.3,.5-.9,0-1.8,1.4-1.4,.5,.5-.5,3.6,1.4,1.8,0,2.3-.9,3.2-.5,5.4-.9,0-1.4-.9-1.4,0,1.8,2.3,.5,4.1,.5,6.8q-.5,0-.5-.5c.9,5-1.4,13.1-1.4,20.8q-.9,0-.9,1.4,.1-1.6-.3-1.6Zm-85.6,107.4c-1.8,0-1.8,1.8,0,1.8v-1.8Zm-1.4,5q0,1.4,.5,1.8,0-1.4-.5-1.8Zm1.8-13.2c0,2.3-2.3,5.4,0,6.8-1.3-2.2,1.8-5.4,0-6.8Zm1.4-6.8c-.5,1.8-1.8,4.5-.5,5.4,0-1.3,1.4-3.6,.5-5.4Zm60.7-117.8c1.4-.5,.9-1.8,2.7-1.4-.5-.5,1.4-.5,1.4-1.4-2.8-.8-4.1,1-4.1,2.8-.9,.9-5.4,5-3.2,6.3v.9c-1.8,.5,0,1.8,0,0,2.3-.9,0,2.3-.5,3.2,0-1.8-1.8,0,0,0-1.4,1.4-1.4,2.7-2.7,4.1-1.8,4.1-4.1,8.2-7.2,10.9v1.4c-1.4,0-2.3,.5-3.6,1.4,0,.9-.9,1.8,0,1.8v-1.8c1.4,0,1.4,1.4,1.8,1.4,.5-.5,0-2.7,1.8-2.3-1.8,4.5-4.5,7.7-6.3,12.2h-.5c.5,2.3-1.4,3.6-2.3,5-1.4,.5-1.4-.5-2.7-.5,0,1.8,1.4,1.4,2.3,1.8,0,1.4-.9,1.8-1.4,1.4,0,.5,.9,2.7,.5,2.7-1.4,1.4-1.4-.5-1.8,0,0,1.4,.5,4.1-2.3,4.5,.5,2.7,0,5.4-2.7,6.8,0,5-4.5,10.4-5.4,16.8-.5,.5-1.4,.5-1.4,.5-.5,5.4-2.3,13.6-6.8,16.8,2.3,3.6-1.4,8.2-1.8,12.2-.9,0-1.4-.5-1.4,.9h-.9c.5-1.8-1.4,0,0,0,0,.5-1.4,0-1.4,1.8,0,0-1.4,.9,0,.9v-.9c1.4-1.4,.9,0,1.8,0,.5-.5,.5-1.4,.5-1.8,1.4,0-.5,2.7,0,4.5-.9,.5-1.4-.5-2.3,.5,1.4,.5,1.4,1.4,1.4,2.3-1.4,1.4-2.7,2.7-2.7,6.3,0,3.2-4.1,10-4.1,15,0,0,.5,0,.5,.9-.5,1.4-1.8,1.4,0,3.2-3.2,1.8-.5,6.8-2.3,10.4,0,5-1.4,10.9,.5,16.8,0,.5,0,1.4-.5,2.7,.5,.9,.5,1.4,.9,2.7-.5,.5-.5,0-.9,0,.5-1.4,0-1.4-.9-1.4-.5,0-.5,1.4,.9,1.4,0,2.3,.5,2.7-.9,3.2-1.4,0-2.3-2.3-3.2-.5,.5,1.4,1.8,1.4,3.2,1.4,.9,5.9,5.4,4.5,6.3,10.4,7.7,.5,12.2-7.3,17.7-9.1,1.4-.5-1.8,0-.9-1.4,1.4-.9,.9,1.4,2.3,.5-.9-1.8,.5-4.5,2.7-5.9,0,1.4-.5,1.4-.5,1.8q-.5,0-.5,.5c-.9,0-1.4,1.4-.9,1.8,0-1.4,1.4-.5,.9-1.8,.5,0,.5-.5,.5-.5,.9-1.8,3.2-2.7,2.3-4.5,0,.5-1.4,2.7-1.8,1.8,.5-1.4,.5-1.8,1.8-3.2,.5,0,0,1.4,.5,1.4,1.8-2.3,2.3-4.1,3.2-6.8-.9-.5-.9,.9-.9,0,0-1.4,0-2.7,1.8-2.7,.5,1.4-1.8,1.4-.5,1.8,3.6-4.5,5.4-11.3,6.8-16.8,1.4-1.4,1.4-2.3,1.4-3.6,.9,0,0-1.8,0,0,0,.5-1.4,.5-1.4,0,1.4-2.3,1.8-4.5,2.7-7.2,0,.5-.5,1.4,.9,1.4,0,0,.5-2.3-.9-1.4,.9-2.3,1.4-3.6,1.4-5h1.4c-.5-1.4-1.4-3.6,.9-3.6,0-.9-.9-.9-.9-2.3,2.7-7.7,4.1-15,6.8-20.8-1.4-2.3,0-6.3,1.8-8.6,5.9-35.3,12.2-69.3,15.9-107.4-2.7,1.4-3.2,6.3-5.4,6.3,0,2.7-4.1,5.9-5.9,7.7-.6,.3-1.5,.3-1.5-.6Zm-58.9,111c-1.8,0-2.3,5.4-1.4,6.3,.5-2.2,.9-4,1.4-6.3Zm29.4-80.2c-3.2,8.2-6.8,16.3-10.9,23.1,0,2.7-1.4,2.7-1.4,5.4-2.7,4.1-5,9.1-5.9,15-4.1,8.2-6.8,17.7-9.1,26.7-1.4,3.2-2.7,5.9-2.3,9.1,4.1-7.7,6.3-19,9.1-27.2,2.7-7.2,5.9-15,8.2-23.6,2.7-4.1,5-8.2,6.8-13.1,2.3-4.5,5-9.1,5.4-14,6.3-6.8,9.1-17.2,14.5-24.5,5-9.1,11.3-15.4,15.9-24,5-5.9,10.4-11.8,13.6-19.5h-.5c-15,20.4-31.3,40.3-41.7,64.8-.3,0-.3,2.3-1.7,1.8Zm-24.4,87.9s0,.5,1.4,0c-.1,0-1.4-.4-1.4,0Zm5.9-12.2c0-.9,1.8-3.6,.5-3.6,.5,1.4-.5,1.4-1.4,1.4,0,.8,.4,1.3,.9,2.2Zm.9-24.9c.5,1.4-1.4,2.7-.5,4.5,0-1.8,1.8-4.5,.5-4.5Zm.4,18.6c0,.5-1.4,.5,0,.9,0,0,.9-.9,0-.9Zm.9-1.9c0-.5,.9-.5,.9-.9-.9,0-.9-.9-.9-.9,0,.9-.5,.9-.5,1.4q.5,0,.5,.4Zm1.4-1.8c-.5-1.4,.5-1.8,0-2.3,0,.5-.5,.9-1.4,.9,0,1,0,1.4,1.4,1.4Zm0-22.2c.5,0,.5-.5,.5-.9,1.4-.5-.5-1.8,0,0-.5,0-.5,.5-.5,.9Zm1.8-2.7c.5-1.4,.9-1.8,.9-2.7q0-.5,0,0c-.4,0-1.4,1.8-.9,2.7Zm0,17.7c.5,.9,.9-1.4,0-1.4v1.4Zm.9-3.2c1.4-2.3,1.4-4.1,2.3-5.4-.9,0-.9,1.4-2.3,.9,0,2.3-.4,2.7,0,4.5Zm1.4,101q0-.4,0,0c-1.4,0,0,.9,0,0Zm2.2-127.7c-.9,2.7-3.6,5-2.3,7.2,.1-2.2,2.8-4.5,2.3-7.2Zm0,124.1c.5,.9-1.8,.9-1.8,2.7,.9-.4,3.6-2.2,1.8-2.7Zm-1.3-105.1c1.4,0,1.8-2.7,1.4-2.7-1,.4-1.4,.9-1.4,2.7-.9,0,.4,1.4,0,0Zm1.3-6.8c-.9,.5-1.8,1.4-1.4,2.7,1.8,0,.5-2.7,1.8-.9,0-.5,1.4-1.4,.9-1.8,1.8-3.6,4.5-8.2,4.5-12.2-1.4,0-.5,5.4-3.2,4.1,0,2.7,0,5-1.4,8.2q-.7-.1-1.2-.1Zm2.8,108.7c-.9,1.4-1.4,1.4-2.3,3.2,1.3-.4,3.2-1.8,2.3-3.2Zm.4,8.7q0-.5-.5-.5s-.5,.5,0,.5c.1,0,.1-.5,.5,0Zm4.1-146.8c-1.8,3.2-3.6,6.8-4.5,10,1.8-2.3,4.5-7.8,4.5-10Zm-4.1,150.4c.9,.5,.9-.9,.5-.9,0,0,0,.5-.5,.5v.4Zm.9-5.5c-.9,0,0,.9,0,0,1.4-.9,2.3-1.4,2.3-3.6,6.3-5.4,8.6-15.9,14-22.2-.5-4.1,1.8-7.7,2.7-10,1.4,.5,1.4,2.7,1.8,1.8v-1.4c2.3,.5,1.8-2.3,0-1.8v1.8c-1.4,0,0-1.4-1.8-2.3,1.4-.5,.5-3.2,2.7-4.1,.5,2.3-.9,2.3-.9,3.6,2.7,0,1.4-4.1,3.2-4.1,.5-5.9,2.7-10.9,5-17.7,0-.5-.9-.5-.5-1.8q.5,0,.5,.5c1.8-5.4,1.4-9.5,3.6-13.1-.9-2.7,1.4-6.3,2.3-8.6,.5-6.8,4.1-17.7,3.6-23.6-2.3,15.4-8.2,30.4-10,44.8-1.8,0-.5,2.3-2.3,2.3,.5-9.1,5.4-18.1,6.3-27.6,2.3-5.9,3.2-12.2,4.1-20.4,2.3-6.3,1.8-15.4,4.5-22.2-.5-3.2,0-6.3,1.4-10-1.8,0-1.4,2.3-2.3,2.3-1.4,16.3-5,33.1-9.1,48.9-.5,1.8-.9,4.5-.9,7.2-3.6,10.9-5.9,24.5-9.5,34.9,0,.9-.5,.9-.5,1.4-4.5,15.4-10.9,29-18.1,41.2-1.6,.7-1.6,2.5-2.1,3.8Zm3.2-128.6c.5-1.4-1.4-1.4-1.4-.9-.4,1.8,.5,.4,1.4,.9Zm3.2,125.9c-.5,0-.5-.9-.5-.9-1.4,2.3-2.3,2.7-2.7,4.5,1.3,0,1.3-2.2,3.2-3.6Zm-2.3-130.4h0Zm1.8-2.8c-1.4,.5-2.3,2.3-1.4,2.7,1.4-1.3,2.3-2.2,1.4-2.7Zm0-14.9c1.4,0,1.4-1.4,1.4-2.7,0-.5,1.4-1.4,.9-1.4,0,.5-1.4,.5-.9,1.4-1.4,0-.5,1.8-1.4,2.7Zm2.7,12.2c0-1.4,0-2.7-1.4-2.7,0,.5-.9,.5-1.4,.5,.1,1.3,1.5,2.2,2.8,2.2Zm-2.7,118.7c.5-.9,.9-1.8,1.4-3.2,1.3,0,0,3.2-1.4,3.2Zm1.4-127.3c-.9-.5-.5,1.4-.9,1.8,.9,0,.9-1.3,.9-1.8Zm0,140.4c0,.5-.9,1.4,0,1.4,0,0,1.3-1.4,0-1.4Zm1.3-139c1.8,0,0-1.8,0,0-.4,0,.9,.9,0,0Zm0-10c.9,.5,1.4-1.4,0-1.4v1.4Zm5,5.4c-1.4-1.4-1.8,.9-2.3,.9-1.4,0-.9-1.4-2.7-.9,0,.9,2.3,.9,2.3,2.7,1.3,.1,1.3-1.8,2.7-2.7Zm-3.2,140c-.5-.5-1.8,1.4-.5,1.4,.1-.5,.5-.5,.5-1.4Zm1.4-133.6c-.5-.9,0-.9,0-1.4h-.9c0-2.3-2.3,0,0,0,0,.5,.4,1.4,.9,1.4Zm0-18.1c-.5,.5-2.3,2.3-1.4,3.2,.5-1,1.8-2.8,1.4-3.2Zm0,148.6c0,.9-1.8,2.3-.9,2.7,0-1.4,2.7-1.4,.9-2.7Zm-.9-15c-.5-.9,0-1.4,0-1.4h.5c-.1,0-.5,.5-.5,1.4Zm.9-127.8c0,.5-1.4,1.4,0,1.4-.5-.4,1.8-.9,0-1.4Zm31.2-54.3c-12.2,14.5-22.2,30.8-31.3,48.5,4.1-5.9,7.7-11.8,10.9-18.6,6.4-10,13.7-20,20.4-29.9,.5,0,.9,0,.9-.9,1.4,0,1.4-1.8,2.3-1.8-.9,0-2.3,0-2.3,1.8-.9,0-.9,.9-.9,.9Zm-30.3,59.8c1.4,0,1.4-1.4,1.8-.9q.9-.5,.9-1.8c-1.4,0-1.4-.9-1.8,0,.5,1.3-.9,1.3-.9,2.7Zm.9,115.5c.5-2.7,1.8-6.3,3.2-8.6v1.8c-2.3,1.4-.9,5.4-3.2,6.8Zm2.7,12.2c0,1.4-2.7,3.6-.5,4.1-.4-1.8,1-3.6,.5-4.1Zm1.8-144.5c0,.9-1.4,.9-1.4,2.3,1.4,0,2.3-2.3,1.4-2.3Zm.5,140.5c-1.8,0-1.8,1.4-1.8,2.3,1.3-.5,1.3-1,1.8-2.3Zm.4-133.2c0-1.8-.9-1.8-.9-2.3-1.4,.5,0,.9,0,2.3h.9Zm.5-2.3c1.4-1.8,2.7-3.2,2.7-5.4-1.4,.9-1.4,0-1.8,.5,2.3,.5-1.4,5-2.3,3.2,0,.3,.5,1.2,1.4,1.7Zm-.5,129.6c-.5,1.4-.9,3.6-.9,5.4,2.3,0,2.7-5,.9-5.4Zm4.1-133.7s1.4-1.8,0-1.4c-.5-1.8,.9-1.4,1.8-1.4-.5-.5-.9-.9-1.4-1.8-.5,1.4-2.7,.9-2.7-.5-1.4,0-1.8,.5-1.8,1.8,1.4,.5,1.4-.5,1.8-.5,.9,.5,1.4,.9,2.3,2.3,.5,.6-.9,1.5,0,1.5Zm-2.3,6.4h0Zm0,106s.9-1.4,0-1.4v1.4Zm1.9,9.9c0,.9-.5,1.4-.5,2.3-1.4,0-1.4-1.8-.5-2.7,.5,0,.5,.4,1,.4Zm.4-15.4c0-.5,0-1.4-.9-1.4,0,.9,0,1.4,.5,1.4h.4Zm-.9,15c0-2.7,1.4-5.4,2.7-9.1,0,2.3-.4,6.4-2.7,9.1Zm2.3-127.3h.5c-.5-.5,0-1.8-.9-1.8-.1,1.3,.4,1.3,.4,1.8-.5,.4,0,.4,0,0Zm.4-1.8c1.4,0,1.4-.9,3.2-.5-1.4-2.3,0-2.3,.5-4.1,.5-.5,1.8-1.8,.5-2.3-.5,.5-.5,1.4-.5,2.3-1.9,.5-2.3,3.2-3.7,4.6Zm1.4,120h-1.4c0-1.8,.9-2.7,1.4-4.1v4.1Zm1.3,6.4q0-.5-1.4-.5,0,.5,.5,.5h.9Zm.5,10.4c0,.5,0,1.8,.9,1.8,0-1.4,0-1.8-.9-1.8Zm.5-15s-.9,.5,0,1.8c0-1.3,.4-1.8,0-1.8Zm4-9c-1.4-.5-1.4-.9-1.8-.9-.5,2.3-1.8,5-1.8,7.7,1.4-2.3,0-5.9,3.6-6.8Zm2.7-123.7c-.5,2.3-2.3,2.7-2.7,4.5-.9-.5,0-1.4-.9-1.4,0,.9-.9,0-.9,.9,0-3.1,2.3-4,4.5-4Zm-3.6,141.4c-1.4,0-.5-1.8-.5-2.7,1.9-.1,1.9,2.2,.5,2.7Zm0-134.6c.9-.5,0-1.4,1.4-.9-.5,.4,0,1.4-1.4,.9Zm1.4,131.8c-.5,0-1.8-1.4-.5-1.4,.5-.4,.5,.5,.5,1.4Zm1.3-13.1c-.5,.9-.5,1.8,.5,1.8,0-.4,0-1.8-.5-1.8Zm.9-126.9c.5,0,.5-.5,0-.5v.5Zm1.4,105.6c-.9,0-1.4,0-1.4,.5q1,0,1.4-.5Zm-.4,15.9c0,.5,0,.9,.5,.9-.1,0,.4-1.4-.5-.9Zm.4,10.4c-.9-.9,.5-2.3,0-3.2,1.8,0,0,2.3,0,3.2Zm.5-3.6c0-1.4,.9-1.4,.9-1.8,.4-.1,.4,1.8-.9,1.8Zm.9-30.4s-1.4,1.4,0,1.4c-.9,0,.4-1.4,0-1.4Zm.9-22.7c-.5,.5-.9,2.7-.5,4.1,0-1.8,1.8-3.1,.5-4.1Zm-.5,18.6v1.4c0-.9,.5-1.4,0-1.4Zm1.8-25.8c0,2.7-1.4,4.5-1.4,6.8,1.4-1.4,2.3-5.9,1.4-6.8Zm-.4,31.7c-.9,0-1.4,1.8,0,2.3-.9-1.4,.9-2.3,0-2.3Zm.9-110.5c-.5,.5-2.3,2.3-.9,2.7,0,0,1.3-1.8,.9-2.7Zm.4,112.3c0,.5-1.4,.9,0,1.8v-1.8Zm0-38c-.5,.5-.9,3.6,0,4.1-.4-1.9,1.4-2.8,0-4.1Zm1.8-82.5c-1.8,.5-1.8,1.4-2.3,2.7,.5-.9,1.9-1.3,2.3-2.7Zm-1.8,77.9c0,1.4-.5,3.6,1.4,3.6-1.4-1.3,0-2.7-1.4-3.6Zm0,41.3c0,.5,1.4-.9,0-.9v.9Zm1.4-59.8c0,.9-2.3,4.1,0,5.9,0-2.3,1.4-5,0-5.9Zm0,71.1c-1.4-1.4,0-2.7,0-3.6,.4,.9,0,2.2,0,3.6Zm0-55.7c0,.9-1.4,1.8,0,2.7,0,0,.4-2.7,0-2.7Zm3.6-74.3c-.9,1.8-2.7,3.6-3.6,5.4,2.3-1.4,3.6-4.1,3.6-5.4Zm-2.7,51.2c-.5,1.4-.9,3.2-.9,5.4,1.4-1.4,2.3-4.1,.9-5.4Zm-.5,48.9c0-.9-.5-.9-.5-.9v.9h.5Zm1,14.9c-.5-.9,0-2.7-1.4-2.7v1.8c0,.9,.9,.9,1.4,.9Zm-1-44.8c-.5,.9-.5,2.7,0,3.2,.5-.5,1-2.3,0-3.2Zm.5-3.2c0,.5-.9,1.8-.5,2.7,1.9,.5,1-2.7,.5-2.7Zm3.6,40.8c-.5-1.8,0-2.3,0-3.6-1.8,0-.9,1.8-1.8,2.7-1.4,0,0-3.2-1.4-2.7,.9,2.7-.9,3.6-.9,5.4,1.9-.9,2.3-3.2,4.1-1.8Zm-3.6-111c0,.9,0,1.4,.5,1.4,0-.5,0-1.4-.5-1.4Zm.5,52.6v-.9h-.5v.9h.5Zm0,34.8q.9-.5,.9-1.8c-1.4-.4-.9,1.4-.9,1.8-1,0,0,.9,0,0Zm0-38.5v1.4c1.3,0,1.3-1.8,0-1.4Zm.9,14.1c-.9,.9-.9,1.4,.5,1.8-.1-.9-.1-1.8-.5-1.8Zm.4-20.4c-.5,1.4-1.8,5-.5,5.9-.8-.9,1.9-5,.5-5.9Zm.9-2.7h-.9c0,.9-1.4,1.8,0,1.8,0-.5,1.4-.5,.9-1.8Zm-.9,21.3c0,.9-.5,.9-.5,1.4,.5,.4,.5-1.4,.5-1.4Zm0-24.5c0,1.4,0,1.8,1.4,1.8,0-.4,0-1.8-1.4-1.8Zm0,15.9v.9c1.4,.4,1.4-1.4,0-.9Zm.9,4.9v-1.4h-.9v1.4h.9Zm-.9,44v1.8c.9,0,1.4-1.8,0-1.8Zm1.8-4.6c-1.8-.5-1.8,1.8,0,1.8v-1.8Zm-.4-67.9c0,2.3-1.4,3.6,0,5-1.4-2.7,1.3-4.1,0-5Zm.4-4.5c0,1.4-1.8,2.7,0,3.6,.5-.9,1.4-2.7,0-3.6Zm-.4-31.3c.5,0,.9-.5,.9-.9q-.9,0-.9,.9c-.5,.5,0,.5,0,0Zm.4,55.3c-.5,.5-.9,1.4,0,1.8,0-.5,.5-1.4,0-1.8Zm0,54.8c0,1.4-.5,1.8-.5,3.2,1.9,.4,1.4-3.2,.5-3.2Zm.9-89.7c0,3.6-2.7,8.2-.5,10.4,.1-2.7,1.4-7.2,.5-10.4Zm-.4,29.9c-.5,0-.5,1.8,.5,1.8-.5-.5,.4-1.8-.5-1.8Zm1.8,43h-.9c-.5,.9-1.4,3.2-.5,4.5,.9-1.3,.5-3.6,1.4-4.5Zm-.9-16.7c.5,.9-.9,2.3,.5,2.3-.5-1.4,1.8-2.3-.5-2.3Zm1.8,10.4h1.8c.5,0,.5-1.4,.5-2.3-1.8,0-.5,2.3-1.8,1.4-.5-1.4,0-2.3-.5-2.7-1.4,1.8-1.8,6.3-1.4,8.6,.5-2.3,1.4-3.7,1.4-5Zm-.9-53.9c-.5,.9-.5,1.4,.9,1.8-.9-.9,0-1.8-.9-1.8Zm0,39.8c.9,.5-.9,.9,0,1.8,0-.9,1.4-1.8,0-1.8Zm.9-44.4c-.9,0-1.4,3.6,0,2.3-.9,0,.5-2.3,0-2.3Zm.9-162.6c10-2.3,14.5,8.2,10,15.9-8.2-.5-15-8.2-10-15.9Zm-.4,227.4c0,.5-1.4,.5-.5,1.8,.5,.5,1.8-2.7,.5-1.8Zm0-68.4c0-.5,0-.9-.5-.5,0,0,0,1.4,.5,1.4v-.9Zm0,40.3v-.9h-.5v.9h.5Zm.4,8.6c0,.9-.5,3.2,.9,3.2-.9-.9,.9-3.6-.9-3.2Zm2.3,1.4c-.5,1.4-1.4,1.4-.9,2.3,.9,0,2.2-1.4,.9-2.3Zm0-11.3v-1.4h-.5v1.4h.5Zm1.3-10.9c-1.4,0-1.4,1.8,0,2.3,0-.9,.5-2.7,0-2.3Zm0-28.1c.5,.9,.9-.9,0-.9v.9Zm0,24c.5,0,.9,0,.9-.5-.4,.1-.9,.1-.9,.5Zm.5-4c-.5,1.4,0,1.4,0,2.7,1.8,0,.9-2.7,0-2.7Zm.9-4.1h-.9c.5,1.4,0,1.4,0,3.6,2.2,0,0-2.3,.9-3.6Zm0-6.4c.9,.5-.5,2.3,.9,2.3,0-.9,.4-1.8-.9-2.3Zm3.2,.9c.5-1.4-.9-1.4-1.8-.9-.1,.9,.9,.9,1.8,.9Zm.4-7.7c-.5,.5-.5,.9-.5,2.3,1,0,1-2.3,.5-2.3Zm.5-23.5h0Zm.4,11.8c0,.5-.5,.5-.5,1.8,1,0,1-2.3,.5-1.8Zm.9-5c-.5,.5-.9,2.7,0,2.7,0,0,.9-2.7,0-2.7Zm14.1-42.2c-4.1,2.7-8.2,6.3-10.4,10.9h-.5v1.4q.5,0,.5-1.4c4.5-2.7,7.2-6.8,10.4-10.9q.9,0,.9-1.4c.5,0,0,0,0,0l-.9,1.4Zm.9-4c-4.5,2.3-8.2,7.2-11.3,11.3-.5,0,0,0,0,0,4-4.1,7.6-7.3,11.3-11.3,6.8-5.4,13.1-10.9,19.5-16.3-7.3,3.2-12.2,9.5-18.6,14.5,0,.4-.5,.9-.9,1.8,0,0-.9,0,0,0Zm-6.8,14.5c-.5,0-1.8,1.8-.5,1.8,0-1.4,.5-1.4,.5-1.8Zm-.5,3.1h.5v-1h-.5v1Zm5.9-9c0,.9-2.3,.9-2.3,2.7-2.3,0-1.8,3.2-2.3,5,1.8,0,.9-1.8,.9-2.7,.5-.9,1.4-.9,1.4-2.3,1.8-.5,2.3-1.4,2.7-2.7,1.8-.5,2.3-1.4,2.3-2.3-1.4,0-1.4,.9-2.3,2.3h-.4Zm6.8-9.5c0-.5,0-.9-.5-.9-1.8,1.8-3.6,1.8-3.6,4.5,1.4-.9,2.3-2.7,4.1-3.6Zm-2.7,5.4c1.4,0,0-1.8,0,0q0,.5,0,0Zm0,2.7h1.4v-.5h-1.4v.5Zm3.6-3.2h-.9c0,.9-1.8,1.4,0,2.3,0-1.3,.9-1.3,.9-2.3Zm1.8-8.1c-1.4,.5-2.7,1.4-2.7,2.3,1.8,0,2.7-1,2.7-2.3Zm-.4,4.5c.9,.9,.9-1.4,.5-.5h-.5v.5Zm8.1-10.9c-2.7,.9-5,2.7-6.3,5,3.2-1.3,5.4-2.7,6.3-5Zm-4.5,9.6c-.9,0-1.8,.9-.9,2.3,.4-.1,.4-1.4,.9-2.3Zm.9-2.3c-1.4-.5-1.4,0-1.4,.9,.5,0,.5-.5,1.4-.9Zm3.2-.9c-1.8,0-1.8,.5-1.8,1.4,1.3-.1,1.8-.5,1.8-1.4Zm2.2-3.2c0-.5,.9-2.3,0-.9-.5,0-1.4,0-.5,.9h.5Zm1.4-6.3c-1.4,.5-1.8,1.4-1.8,2.7,1.3,0,1.8-1.4,1.8-2.7Zm2.7-1.8c-.9,.5-1.8,.5-1.8,1.8,1.4,0,1.8-.5,1.8-1.8Zm-.4,5.9c-1.4,0-1.4,1.4-1.4,2.3,.9-.1,1.4-1,1.4-2.3Zm4.5-12.3c-2.3,1.4-4.1,1.8-4.5,4.1,1.8-.5,3.6-2.3,4.5-4.1Zm-2.7,9.5c-.5-.9-.5,0-1.4,.5,1.4,0,1.4-.5,1.4-.5Zm4.5-.9c.5,0,.9-1.4,0-1.4,0,.5-.5,.5-1.8,.5,0,.9,1.4,.9,1.8,.9Zm.5-6.8c-.9-.5-.9,.9-.5,1.8,0-.9,.5-1.3,.5-1.8Zm-.5-2.2c1.8-.5,3.2-.9,3.2-2.3,.9-.9,3.2-1.4,2.7-2.3-.9,.5-2.3,.9-2.7,2.3-2.3-.9-2.3,1.4-3.2,2.3Zm1.8,1.8c1.4,0,0-1.4,0,0-1.3,.4,0,.4,0,0Zm1.8-1.4c-.5,0-1.4,0-1.4,1.4,1,0,1.4-1.4,1.4-1.4Zm2.8-2.2c-.5,0-.9,0-.9,.9,.4,0,.9-.9,.9-.9Zm6.3-3.7c-.9,0-2.7,.5-2.7,1.4,1.8,0,2.2-.5,2.7-1.4Zm-.9,5.5c-1.4,0-1.4,.5-1.4,1.8,0,0,1.4,0,1.4-1.8Zm3.6-10.4c-.9,0-2.3,0-2.3,1.4,1.4-.1,2.3-.5,2.3-1.4Zm-.9,2.7c-.5,.5-1.4,1.4-1.4,2.3,1.4-.1,3.2-1.9,1.4-2.3Zm3.2-4.1h-.9s-.5,0-.5,1.4c.5,0,1.4,0,1.4-1.4Zm6.3-2.7v-1.4h-1.4v1.4h1.4Z" fill="#67131e"/><path d="M1301.2,216.69c-5,4.1-8.2,10-13.1,14,3.2-.5,5.9-4.5,8.2-7.2,0,0,0,.9,1.4,.9,.5-1.4,2.7-1.8,.9-3.6,1.8-.5,1.8,0,2.7,0,.5-1.4-.9-.5-.9-1.4,2.3,0,2.7-3.6,5.4-4.1,0-1.4-1.4-1.4,0-2.7,1.4,0-.5,1.4,0,1.4,2.7-1.4,2.7-3.2,4.1-5.9,.5,2.3,1.4-.5,2.7-.9,0-1.4-1.8-1.4-.5-2.3,.5,0,.5,1.4,.5,2.7-4.5,6.8-10.4,12.2-15,19v.5c-1.8,.5-2.3,1.8-3.6,3.2,1.4,0,2.3-1.8,3.6-3.2v-.5c4.5-1.8,5.4-8.2,10-10.4,.9-.9,.9-2.3,2.7-3.2-2.3,6.3-7.3,9.1-10,13.6,3.6-.5,5.4-6.3,9.5-8.6,.5-1.4,1.4-2.3,1.4-3.2,3.6-2.3,4.1-6.3,8.2-7.7-3.6,3.6-6.8,11.3-12.2,15,1.4,4.5-6.8,6.3-6.8,10.4-1.8,.5-2.3,.5-4.1,1.8,0,.5,1.4,.5,1.4,.9q-1.4,.5-1.8,.5c-2.7,7.2-9.5,9.5-14,15.9-2.7,0-4.1,1.8-7.2,1.4-1.4,3.2-5.4,1.8-8.2,3.6-4.1-1.4-6.8,0-9.5-3.6-.5-.5-.5,.5-1.8,0-1.4-.9-2.7-2.3-3.6-3.6-1.4,.5-1.4-.5-2.7-.5-4.5-5.9-10-18.6-11.8-28.1,0-1.4-.5-4.5-1.8-5.9,0-2.3,1.4-9.1,1.8-7.2-1.8-9.5,0-27.2-7.3-34-.5,.9-.9,1.8-1.4,2.3-1.4,0,0-.5,0-1.4-1.4,0-3.6,3.6-3.6,6.8h-.5c-4.1,6.3-9.5,10.9-12.2,18.6-1.8,0-2.3,.9-2.7,2.7,0,.5-1.4,0-1.8,.5,0,1.4,.9,0,.5,1.4-2.3,1.4-1.4,5.4-4.5,6.8,0-.5,0,0,0,0-.9,2.7-2.3,4.5-5,5,2.3,.9-.5,4.5-2.7,4.5,0,5.4-4.1,7.2-6.8,11.8-.9,0-2.7,.5-3.6,.5-1.4-.9-1.8-2.3-3.2-2.7v-.9c-.5,0-.5,.9,0,.9,0,0,0,.5-.5,.5-1.4-.5-1.8-4.1-5-2.7-6.8-10.9,1.4-32.6,3.2-44.4-1.8-4.1,3.2-5,3.2-7.7,2.7,0,3.2-1.8,5.4-2.3,3.6,.5,5,3.6,7.7,4.5-2.3,7.2-2.3,14.5-3.2,22.2,10.9-13.6,17.7-29.9,34.9-36.7,6.3,1.8,13.6,2.3,18.1,7.7,1.4,2.3,1.4,5,2.7,8.2,.5,1.8,0,2.3,0,3.6,4.1,21.3-1.4,40.3,5,59.3,1.4,.5,1.8,2.7,2.7,4.1,10,.9,15-4.1,19-9.5h.5c14-12.2,23.1-28.5,36.2-40.8,4.5-7.7,10.4-13.1,15.9-20.4,3.6,2.7-.9,5.4-1.8,8.2-6.5,12-18.3,19.7-25.1,32.4Zm-58.4-1.4c-1.8,0-.9,2.7-.5,2.7,.5-.9-.4-1.3,.5-2.7Zm0,5.5s.5-.5-.5-.5v.5h.5Zm0,1.3c0,.5-.5,5,1.4,5.9-.1-3.2-.1-5.4-1.4-5.9Zm.4,5.9c0,.9,0,1.4,1.4,1.4,0-.5,0-1.4-1.4-1.4Zm0,2.3c.9,2.7,.9,4.5,1.4,6.8,.5-2.8,0-5-1.4-6.8Zm51.7,2.2c-1.4,0-2.7,1.8-1.4,1.8,0-1.3,1.4-1.3,1.4-1.8,.5,.5,.5,0,.5,0,.5-.5,0-.5,0,0h-.5Zm.9-.9c.5,.5,.5-.9,1.8-1.4,.5,0,.9,0,.9-1.4-.9,0-.9,.5-.9,1.4-1.8,.1-1.8,.5-1.8,1.4Zm7.2-3.6s0-.5-.9-.5c0,.5,0,.9,.5,.9,0,.1,0-.4,.4-.4Zm10.5-18.1c-.9,1.4-1.4,2.7-3.2,3.2,0-1.9,1.8-2.8,3.2-3.2Zm1.3-6.8c.5,0,.5-.5,0-.5,.9-1.8,1.8-2.7,3.2-4.1q0,1.8-.5,2.3c.9,0,.9-.5,1.8-.9-.9-.9-.9-1.4-1.4-1.4v-.9h1.4v.9c.9,.5,1.4-2.3,.5-.9h-.5c.5-1.8,1.4-2.7,2.7-4.1,.9,0,0,1.4,0,1.8,.5-1.4,2.3-.5,1.4-2.7,1.4,0,1.4-.9,3.2-1.4-4.1,6.3-8.2,10.9-13.1,14.5,.5-1.4,0-2.3,1.4-3.2q-.1,.1-.1,.6Zm.9,4.1c0-.9,.5-1.4,0-1.4,0,.5-.4,.5,0,1.4Zm1.8-2.8c-.9-.9,.5-.5,.5-1.4,.4,.5,0,1.9-.5,1.4Zm3.2-4c0,1.4-.5,1.8-1.4,2.3,.5-1,.5-2.3,1.4-2.3Zm1.4,2.2c0-.9,.9-1.8,1.4-.9-.1,.5-.5,.9-1.4,.9Zm.4-9c0-.9,.5-.9,.5-1.4,.5,0,.5,.5,.5,.5,0,0-.5,.9-1,.9Zm2.3,2.2c0,.5-.5,1.8-1.4,1.8-.4-1.3,1.4-1.3,1.4-1.8Zm-.5-3.6c-.9-3.6,4.1-6.8,5.4-10.9,1,2.8-3.1,7.3-5.4,10.9Zm2.8,1.4c-.9-.9,.9-1.4,.5-2.3,.8,.5-.5,1.4-.5,2.3Z" fill="#67131e"/><path d="M593.2,246.59c-.9-1.4-1.4-3.6-2.7-4.1-6.3-19-.9-38.1-5-59.3,0-1.4,.5-1.8,0-3.6-1.4-3.2-1.4-5.9-2.7-8.2-4.5-5.4-11.8-5.9-18.1-7.7-17.2,6.8-24,23.1-34.9,36.7,.9-7.7,.9-15,3.2-22.2-2.7-.9-4.1-4.1-7.7-4.5-2.3,.5-2.7,2.3-5.4,2.3,0,2.7-5,3.6-3.2,7.7-1.8,11.8-10,33.5-3.2,44.4,3.2-1.4,3.6,2.3,5,2.7,.5,0,.5-.5,.5-.5-.5,0-.5-.9,0-.9v.9c1.4,.5,1.8,1.8,3.2,2.7,.9,0,2.7-.5,3.6-.5,2.7-4.5,6.8-6.3,6.8-11.8,2.3,0,5-3.6,2.7-4.5,2.7-.5,4.1-2.3,5-5,3.2-1.4,2.3-5.4,4.5-6.8,.5-1.4-.5,0-.5-1.4,.5-.5,1.8,0,1.8-.5,.5-1.8,.9-2.7,2.7-2.7,2.7-7.7,8.2-12.2,12.2-18.6h.5c0-3.2,2.3-6.8,3.6-6.8,0,.9-1.4,1.4,0,1.4,.5-.5,.9-1.4,1.4-2.3,7.2,6.8,5.4,24.5,7.2,34-.5-1.8-1.8,5-1.8,7.2,1.4,1.4,1.8,4.5,1.8,5.9,1.8,9.5,7.3,22.2,11.8,28.1,1.4,0,1.4,.9,2.7,.5,.9,1.4,2.3,2.7,3.6,3.6,1.4,.5,1.4-.5,1.8,0,1.2,1.6,1-6.1-.4-6.2Zm-11.8-17.2c-1.4,0-1.4-.5-1.4-1.4,1.4,0,1.4,.9,1.4,1.4Zm-1.8-14.1c-.9,1.4,0,1.8-.5,2.7-.4,0-1.3-2.7,.5-2.7Zm-.4,5c.9,0,.5,.5,.5,.5h-.5v-.5Zm.4,1.8c1.4,.5,1.4,2.7,1.4,5.9-1.8-.9-1.4-5.4-1.4-5.9Zm1.8,15c-.5-2.3-.5-4.1-1.4-6.8,1.4,1.8,1.9,4,1.4,6.8Z" fill="#67131e"/></g><path d="M712.5,181.19c3.3,14.2,9.8,27.8,19.7,40.8,3.3-2.1,8.7-5.6,16.2-10.6s13.2-8.5,16.9-10.6c.7-.3,1.1-.5,1.5-.5,.5,0,.8,.2,.8,.5,0,.4-.4,.9-1.3,1.5-4.4,2.4-10.3,6.2-17.7,11.3-7.4,5.1-12.4,8.5-14.9,10,7.8,9.7,14.9,15.1,21.3,16.2,1,.3,1.5,.7,1.5,1.1,0,.5-.5,1.1-1.4,1.6s-1.8,.8-2.7,.8c-7,0-14.9-5.6-23.8-16.9-14.9,8.9-29.5,13.3-44,13.3-7.9,0-11.8-2.8-11.8-8.5,0-8.9,3-17.3,9.1-25.4s14.2-16.4,24.5-24.9c-1.1-5.1-1.6-9.4-1.6-12.8,0-6,2.1-11.5,6.3-16.3,4.2-4.9,8.9-8.4,14.2-10.7,5.2-2.2,10.1-3.4,14.6-3.4,5.8,0,8.7,2.2,8.7,6.6,0,1.5-.6,3.3-1.9,5.2-1.3,2-3.2,4.2-5.9,6.8-2.7,2.6-5.3,4.9-7.8,7.1s-5.9,5.1-10.1,8.6c-4.2,3.8-7.7,6.8-10.4,9.2Zm-4.9,4.6c-17.4,16.4-26.1,30.8-26.1,43.3,0,5.5,3,8.2,9,8.2,10.3,0,22.5-4.1,36.7-12.3-9-12.3-15.6-25.4-19.6-39.2Zm4.1-9.2c1.5-1.2,3.8-3,6.8-5.3,3-2.4,5.2-4.1,6.7-5.3,1.5-1.2,3.4-2.8,5.7-4.8s4-3.6,5.2-4.8c1.2-1.2,2.4-2.5,3.7-4s2.2-2.8,2.7-4.1c.5-1.3,.8-2.4,.8-3.5,0-2.6-1.5-3.9-4.4-3.9-2.3,0-4.9,.5-8,1.6-3,1.1-6,2.7-9.1,4.7s-5.7,4.8-7.8,8.4-3.2,7.5-3.2,11.8c0,3.5,.3,6.5,.9,9.2Z" fill="#67131e"/></svg>