<?xml version="1.0" encoding="utf-8"?>
<!-- Generator: Adobe Illustrator 26.4.1, SVG Export Plug-In . SVG Version: 6.00 Build 0)  -->
<svg version="1.1" id="Laag_1" xmlns="http://www.w3.org/2000/svg" xmlns:xlink="http://www.w3.org/1999/xlink" x="0px" y="0px"
	 viewBox="0 0 510 399" style="enable-background:new 0 0 510 399;" xml:space="preserve">
<style type="text/css">
	.st0{fill:#66121F;}
</style>
<path class="st0" d="M489.7,229.5c0-72.6-59.1-131.7-131.7-131.7c-40,0-75.9,18-100.1,46.2c-20.6-24.2-49.8-40.8-82.9-45.1
	l30.5-27.7l-15-6.4l16.9-27.2L161,52.4l-46.8-19.8L130.8,62L114,67.3l31.8,31.1c-67,6.1-119.7,62.6-119.7,131.1
	c0,72.6,59.1,131.7,131.7,131.7c40,0,75.9-18,100.1-46.2c13.4,15.7,30.4,28.2,49.7,36.2c-0.3,11.3,1.5,25.1,5.2,33
	c2.9-0.5,5.5-0.7,7.9-1.4c10-2.7,19.5-6.6,27.9-12.7c6.8-5,13.4-4.7,20.4-0.1c5.1,3.3,10.4,6.4,16,8.8c6.3,2.7,12.9,5.3,19.9,4.7
	c3.8-7.6,4.1-21.2,3.5-32.1C456,331.4,489.7,284.3,489.7,229.5z M166.1,94.9c-0.8,1.2-1.8,2.3-3,3c-1.7-0.1-3.5-0.1-5.2-0.1
	c-1.2-0.8-2.3-1.9-3-3.3l-16.8-29.7l22.7-7.2l22.5,9.5L166.1,94.9z M196.5,72.8l-24.9,22.6l16.3-26.2L196.5,72.8z M196.2,46.4
	l-10.2,16.5L168,55.4L196.2,46.4z M125.7,42.8l28.1,11.9l-18.1,5.8L125.7,42.8z M133.3,66.3l16.2,28.8l-26.2-25.6L133.3,66.3z
	 M157.8,354.1c-68.7,0-124.7-55.9-124.7-124.7c0-68.7,55.9-124.7,124.7-124.7c38.4,0,72.7,17.4,95.6,44.8
	c-17,22.2-27.1,49.9-27.1,79.9c0,30,10.1,57.7,27.1,79.9C230.5,336.7,196.2,354.1,157.8,354.1z M257.9,155.2
	c15.4,20.8,24.6,46.4,24.6,74.2c0,27.8-9.1,53.5-24.6,74.2c-15.4-20.8-24.6-46.4-24.6-74.2C233.3,201.7,242.5,176,257.9,155.2z
	 M407.6,343.8c-0.4-3.7-0.9-6.7-1.2-8.3c-1-6-6-4.5-10-3.3c-10.3,3-20,6.8-28.1,14c-4.8,4.3-14.3,4.2-19.3,0
	c-8.3-6.9-17.9-11.1-28.2-14.1c-4.2-1.2-7.9-1.5-10.4,3.3c-1,2-1.8,4.8-2.2,8.2c-17.8-7.8-33.4-19.6-45.8-34.4
	c17-22.2,27.1-49.9,27.1-79.9c0-30-10.1-57.7-27.1-79.9c22.9-27.4,57.3-44.8,95.6-44.8c68.7,0,124.7,55.9,124.7,124.7
	C482.7,280.6,451.7,324.6,407.6,343.8z"/>
</svg>
